<svg width="832" height="744" viewBox="0 0 832 744" fill="none" xmlns="http://www.w3.org/2000/svg">
<g clip-path="url(#clip0_180_3978)">
<path d="M818.799 487.125C826.09 386.251 654.435 291.643 435.397 275.811C216.359 259.98 32.8833 328.921 25.5925 429.794C18.3016 530.668 189.957 625.276 408.994 641.108C628.032 656.939 811.508 587.998 818.799 487.125Z" stroke="url(#paint0_linear_180_3978)" stroke-miterlimit="10"/>
<path d="M801.956 482.294C809.458 376.984 642.936 279.319 430.018 264.152C217.101 248.985 38.4157 322.06 30.9141 427.369C23.4124 532.679 189.935 630.345 402.852 645.512C615.77 660.679 794.455 587.604 801.956 482.294Z" stroke="url(#paint1_linear_180_3978)" stroke-miterlimit="10"/>
<path d="M785.397 476.547C792.823 366.739 631.075 266.376 424.121 252.38C217.168 238.384 43.379 316.054 35.9528 425.862C28.5265 535.67 190.275 636.033 397.229 650.029C604.182 664.025 777.971 586.354 785.397 476.547Z" stroke="url(#paint2_linear_180_3978)" stroke-miterlimit="10"/>
<path d="M769.155 469.619C776.076 355.259 618.61 252.683 417.446 240.509C216.282 228.335 47.5955 311.173 40.6747 425.533C33.7539 539.893 191.219 642.47 392.384 654.644C593.548 666.818 762.234 583.979 769.155 469.619Z" stroke="url(#paint3_linear_180_3978)" stroke-miterlimit="10"/>
<path d="M753.263 461.121C759.031 342.173 605.167 238.058 409.598 228.575C214.029 219.091 50.8133 307.83 45.0453 426.778C39.2772 545.726 193.141 649.84 388.71 659.324C584.279 668.807 747.495 580.069 753.263 461.121Z" stroke="url(#paint4_linear_180_3978)" stroke-miterlimit="10"/>
<path d="M737.744 450.439C741.374 326.912 590.145 222.244 399.965 216.657C209.786 211.069 52.6732 306.678 49.044 430.205C45.4148 553.732 196.644 658.4 386.823 663.987C577.002 669.574 734.115 573.966 737.744 450.439Z" stroke="url(#paint5_linear_180_3978)" stroke-miterlimit="10"/>
<path d="M387.634 668.437C572.614 668.437 722.57 564.683 722.57 436.694C722.57 308.706 572.614 204.951 387.634 204.951C202.654 204.951 52.6976 308.706 52.6976 436.694C52.6976 564.683 202.654 668.437 387.634 668.437Z" stroke="url(#paint6_linear_180_3978)" stroke-miterlimit="10"/>
<path d="M392.944 672.197C572.81 663.869 713.664 550.057 707.55 417.989C701.436 285.921 550.669 185.61 370.802 193.937C190.936 202.264 50.0821 316.077 56.1964 448.144C62.3106 580.212 213.078 680.524 392.944 672.197Z" stroke="url(#paint7_linear_180_3978)" stroke-miterlimit="10"/>
<path d="M405.034 674.083C579.508 653.456 707.999 527.205 692.026 392.093C676.053 256.98 521.665 164.17 347.191 184.797C172.717 205.423 44.2266 331.674 60.1995 466.787C76.1724 601.899 230.56 694.709 405.034 674.083Z" stroke="url(#paint8_linear_180_3978)" stroke-miterlimit="10"/>
<path d="M427.055 671.342C594.858 632.59 705.504 491.247 674.188 355.645C642.872 220.042 481.454 141.529 313.65 180.281C145.846 219.033 35.2012 360.376 66.517 495.979C97.8327 631.582 259.251 710.094 427.055 671.342Z" stroke="url(#paint9_linear_180_3978)" stroke-miterlimit="10"/>
<path d="M459.5 659.197C617.516 595.922 703.122 438.513 650.706 307.615C598.289 176.716 427.7 121.896 269.684 185.172C111.668 248.447 26.0622 405.856 78.4785 536.754C130.895 667.653 301.484 722.473 459.5 659.197Z" stroke="url(#paint10_linear_180_3978)" stroke-miterlimit="10"/>
<path d="M493.899 635.197C638.347 545.139 694.974 375.139 620.378 255.492C545.783 135.845 368.212 111.859 223.764 201.917C79.3161 291.976 22.6896 461.975 97.2853 581.622C171.881 701.269 349.451 725.256 493.899 635.197Z" stroke="url(#paint11_linear_180_3978)" stroke-miterlimit="10"/>
<path d="M517.516 605.826C648.015 493.407 680.179 316.808 589.358 211.38C498.537 105.952 319.122 111.619 188.624 224.037C58.1255 336.455 25.9606 513.054 116.782 618.482C207.603 723.91 387.018 718.244 517.516 605.826Z" stroke="url(#paint12_linear_180_3978)" stroke-miterlimit="10"/>
<path d="M527.402 579.323C647.276 450.838 663.823 271.455 564.361 178.659C464.9 85.8638 287.093 114.796 167.219 243.281C47.3457 371.766 30.7987 551.15 130.261 643.945C229.722 736.741 407.529 707.809 527.402 579.323Z" stroke="url(#paint13_linear_180_3978)" stroke-miterlimit="10"/>
<path d="M527.716 558.086C640.899 417.998 649.304 237.093 546.488 154.023C443.672 70.9532 268.57 117.175 155.386 257.263C42.2021 397.351 33.7973 578.257 136.613 661.327C239.429 744.397 414.532 698.174 527.716 558.086Z" stroke="url(#paint14_linear_180_3978)" stroke-miterlimit="10"/>
<path d="M522.487 541.249C632.054 392.156 637.287 209.865 534.177 134.091C431.067 58.3171 258.659 117.754 149.093 266.847C39.5266 415.94 34.2928 598.231 137.403 674.005C240.513 749.779 412.921 690.342 522.487 541.249Z" stroke="url(#paint15_linear_180_3978)" stroke-miterlimit="10"/>
<path d="M514.134 527.507C622.246 370.891 627.462 187.03 525.785 116.842C424.107 46.6536 254.039 116.717 145.927 273.333C37.8146 429.95 32.5981 613.811 134.276 683.999C235.953 754.187 406.021 684.123 514.134 527.507Z" stroke="url(#paint16_linear_180_3978)" stroke-miterlimit="10"/>
<path d="M503.977 515.863C612.151 352.601 619.386 166.942 520.137 101.181C420.887 35.4203 252.737 114.461 144.563 277.722C36.3887 440.984 29.1536 626.644 128.403 692.404C227.652 758.165 395.802 679.125 503.977 515.863Z" stroke="url(#paint17_linear_180_3978)" stroke-miterlimit="10"/>
<path d="M492.753 505.644C602.08 336.283 612.695 148.63 516.463 86.5097C420.231 24.3895 253.592 111.326 144.265 280.687C34.9385 450.048 24.323 637.701 120.555 699.821C216.787 761.941 383.426 675.005 492.753 505.644Z" stroke="url(#paint18_linear_180_3978)" stroke-miterlimit="10"/>
<path d="M480.89 496.405C592.182 321.301 607.123 131.505 514.262 72.4845C421.4 13.4635 255.9 107.567 144.608 282.671C33.3158 457.775 18.3749 647.571 111.237 706.591C204.098 765.612 369.598 671.509 480.89 496.405Z" stroke="url(#paint19_linear_180_3978)" stroke-miterlimit="10"/>
<path d="M468.647 487.849C582.532 307.247 602.477 115.2 513.196 58.9006C423.914 2.60117 259.215 103.369 145.331 283.971C31.4456 464.573 11.5005 656.62 100.782 712.92C190.063 769.219 354.762 668.452 468.647 487.849Z" stroke="url(#paint20_linear_180_3978)" stroke-miterlimit="10"/>
<path d="M456.188 479.777C573.165 293.849 598.616 99.4756 513.035 45.6313C427.453 -8.21304 263.246 98.8615 146.269 284.789C29.2913 470.716 3.8402 665.09 89.4221 718.934C175.004 772.779 339.211 665.704 456.188 479.777Z" stroke="url(#paint21_linear_180_3978)" stroke-miterlimit="10"/>
</g>
<g filter="url(#filter0_bf_180_3978)">
<circle cx="148.967" cy="590.967" r="117.56" transform="rotate(159.764 148.967 590.967)" fill="url(#paint22_radial_180_3978)"/>
</g>
<g filter="url(#filter1_bf_180_3978)">
<path d="M182.858 116.971C175.337 120.444 171.978 129.423 176.38 136.441C187.439 154.068 203.032 168.526 221.645 178.224C240.258 187.922 261.042 192.418 281.825 191.381C290.099 190.968 295.533 183.071 294.07 174.916L279.394 93.0777C277.66 83.4099 267.257 77.9894 258.34 82.1078L182.858 116.971Z" fill="url(#paint23_radial_180_3978)"/>
</g>
<g filter="url(#filter2_bf_180_3978)">
<circle cx="525.756" cy="395.756" r="76.9026" transform="rotate(159.764 525.756 395.756)" fill="url(#paint24_radial_180_3978)"/>
</g>
<defs>
<filter id="filter0_bf_180_3978" x="-3.62549" y="438.374" width="305.184" height="305.185" filterUnits="userSpaceOnUse" color-interpolation-filters="sRGB">
<feFlood flood-opacity="0" result="BackgroundImageFix"/>
<feGaussianBlur in="BackgroundImageFix" stdDeviation="2.5"/>
<feComposite in2="SourceAlpha" operator="in" result="effect1_backgroundBlur_180_3978"/>
<feBlend mode="normal" in="SourceGraphic" in2="effect1_backgroundBlur_180_3978" result="shape"/>
<feGaussianBlur stdDeviation="17.5" result="effect2_foregroundBlur_180_3978"/>
</filter>
<filter id="filter1_bf_180_3978" x="139.416" y="45.7158" width="189.892" height="180.812" filterUnits="userSpaceOnUse" color-interpolation-filters="sRGB">
<feFlood flood-opacity="0" result="BackgroundImageFix"/>
<feGaussianBlur in="BackgroundImageFix" stdDeviation="2.5"/>
<feComposite in2="SourceAlpha" operator="in" result="effect1_backgroundBlur_180_3978"/>
<feBlend mode="normal" in="SourceGraphic" in2="effect1_backgroundBlur_180_3978" result="shape"/>
<feGaussianBlur stdDeviation="17.5" result="effect2_foregroundBlur_180_3978"/>
</filter>
<filter id="filter2_bf_180_3978" x="413.832" y="283.832" width="223.847" height="223.847" filterUnits="userSpaceOnUse" color-interpolation-filters="sRGB">
<feFlood flood-opacity="0" result="BackgroundImageFix"/>
<feGaussianBlur in="BackgroundImageFix" stdDeviation="2.5"/>
<feComposite in2="SourceAlpha" operator="in" result="effect1_backgroundBlur_180_3978"/>
<feBlend mode="normal" in="SourceGraphic" in2="effect1_backgroundBlur_180_3978" result="shape"/>
<feGaussianBlur stdDeviation="17.5" result="effect2_foregroundBlur_180_3978"/>
</filter>
<linearGradient id="paint0_linear_180_3978" x1="213.276" y1="667.38" x2="631.116" y2="249.54" gradientUnits="userSpaceOnUse">
<stop stop-color="#7B00FF" stop-opacity="0"/>
<stop offset="0.15081" stop-color="#7B00FF" stop-opacity="0.16499"/>
<stop offset="0.57366" stop-color="#7B00FF" stop-opacity="0.6095"/>
<stop offset="0.86526" stop-color="#7B00FF" stop-opacity="0.89039"/>
<stop offset="1" stop-color="#7B00FF"/>
</linearGradient>
<linearGradient id="paint1_linear_180_3978" x1="222.602" y1="663.735" x2="610.268" y2="245.929" gradientUnits="userSpaceOnUse">
<stop stop-color="#7B00FF" stop-opacity="0.01"/>
<stop offset="0.44799" stop-color="#7B00FF" stop-opacity="0.45338"/>
<stop offset="0.82915" stop-color="#7B00FF" stop-opacity="0.81167"/>
<stop offset="1" stop-color="#7B00FF" stop-opacity="0.95238"/>
</linearGradient>
<linearGradient id="paint2_linear_180_3978" x1="230.226" y1="660.889" x2="591.124" y2="241.519" gradientUnits="userSpaceOnUse">
<stop stop-color="#7B00FF" stop-opacity="0.01"/>
<stop offset="0.22438" stop-color="#7B00FF" stop-opacity="0.22028"/>
<stop offset="0.76274" stop-color="#7B00FF" stop-opacity="0.70891"/>
<stop offset="1" stop-color="#7B00FF" stop-opacity="0.90476"/>
</linearGradient>
<linearGradient id="paint3_linear_180_3978" x1="236.222" y1="659.11" x2="573.607" y2="236.043" gradientUnits="userSpaceOnUse">
<stop stop-color="#7B00FF" stop-opacity="0.01429"/>
<stop offset="0.60745" stop-color="#7B00FF" stop-opacity="0.53666"/>
<stop offset="1" stop-color="#7B00FF" stop-opacity="0.85714"/>
</linearGradient>
<linearGradient id="paint4_linear_180_3978" x1="240.735" y1="658.599" x2="557.573" y2="229.299" gradientUnits="userSpaceOnUse">
<stop stop-color="#7B00FF" stop-opacity="0.01905"/>
<stop offset="1" stop-color="#7B00FF" stop-opacity="0.80952"/>
</linearGradient>
<linearGradient id="paint5_linear_180_3978" x1="243.98" y1="659.473" x2="542.809" y2="221.171" gradientUnits="userSpaceOnUse">
<stop stop-color="#7B00FF" stop-opacity="0.02381"/>
<stop offset="1" stop-color="#7B00FF" stop-opacity="0.7619"/>
</linearGradient>
<linearGradient id="paint6_linear_180_3978" x1="246.22" y1="661.754" x2="529.048" y2="211.635" gradientUnits="userSpaceOnUse">
<stop stop-color="#7B00FF" stop-opacity="0.02857"/>
<stop offset="0.52636" stop-color="#7B00FF" stop-opacity="0.38253"/>
<stop offset="1" stop-color="#7B00FF" stop-opacity="0.71429"/>
</linearGradient>
<linearGradient id="paint7_linear_180_3978" x1="247.751" y1="665.374" x2="515.996" y2="200.76" gradientUnits="userSpaceOnUse">
<stop stop-color="#7B00FF" stop-opacity="0.03333"/>
<stop offset="0.34914" stop-color="#7B00FF" stop-opacity="0.24255"/>
<stop offset="1" stop-color="#7B00FF" stop-opacity="0.66667"/>
</linearGradient>
<linearGradient id="paint8_linear_180_3978" x1="248.873" y1="670.19" x2="503.353" y2="188.689" gradientUnits="userSpaceOnUse">
<stop stop-color="#7B00FF" stop-opacity="0.0381"/>
<stop offset="0.27926" stop-color="#7B00FF" stop-opacity="0.18545"/>
<stop offset="0.89961" stop-color="#7B00FF" stop-opacity="0.55657"/>
<stop offset="1" stop-color="#7B00FF" stop-opacity="0.61905"/>
</linearGradient>
<linearGradient id="paint9_linear_180_3978" x1="249.87" y1="675.997" x2="490.835" y2="175.626" gradientUnits="userSpaceOnUse">
<stop stop-color="#7B00FF" stop-opacity="0.04286"/>
<stop offset="0.24659" stop-color="#7B00FF" stop-opacity="0.15633"/>
<stop offset="0.77842" stop-color="#7B00FF" stop-opacity="0.44423"/>
<stop offset="1" stop-color="#7B00FF" stop-opacity="0.57143"/>
</linearGradient>
<linearGradient id="paint10_linear_180_3978" x1="250.992" y1="682.558" x2="478.192" y2="161.811" gradientUnits="userSpaceOnUse">
<stop stop-color="#7B00FF" stop-opacity="0.04762"/>
<stop offset="0.23171" stop-color="#7B00FF" stop-opacity="0.13977"/>
<stop offset="0.71672" stop-color="#7B00FF" stop-opacity="0.37519"/>
<stop offset="1" stop-color="#7B00FF" stop-opacity="0.52381"/>
</linearGradient>
<linearGradient id="paint11_linear_180_3978" x1="252.45" y1="689.613" x2="465.213" y2="147.501" gradientUnits="userSpaceOnUse">
<stop stop-color="#7B00FF" stop-opacity="0.05238"/>
<stop offset="0.22762" stop-color="#7B00FF" stop-opacity="0.12985"/>
<stop offset="0.69002" stop-color="#7B00FF" stop-opacity="0.32917"/>
<stop offset="1" stop-color="#7B00FF" stop-opacity="0.47619"/>
</linearGradient>
<linearGradient id="paint12_linear_180_3978" x1="254.405" y1="696.897" x2="451.735" y2="132.965" gradientUnits="userSpaceOnUse">
<stop stop-color="#7B00FF" stop-opacity="0.05714"/>
<stop offset="0.2317" stop-color="#7B00FF" stop-opacity="0.12388"/>
<stop offset="0.68849" stop-color="#7B00FF" stop-opacity="0.29679"/>
<stop offset="1" stop-color="#7B00FF" stop-opacity="0.42857"/>
</linearGradient>
<linearGradient id="paint13_linear_180_3978" x1="256.98" y1="704.146" x2="437.641" y2="118.458" gradientUnits="userSpaceOnUse">
<stop stop-color="#7B00FF" stop-opacity="0.0619"/>
<stop offset="0.24357" stop-color="#7B00FF" stop-opacity="0.12045"/>
<stop offset="0.70959" stop-color="#7B00FF" stop-opacity="0.27325"/>
<stop offset="1" stop-color="#7B00FF" stop-opacity="0.38095"/>
</linearGradient>
<linearGradient id="paint14_linear_180_3978" x1="260.246" y1="711.11" x2="422.856" y2="104.24" gradientUnits="userSpaceOnUse">
<stop stop-color="#7B00FF" stop-opacity="0.06667"/>
<stop offset="0.26449" stop-color="#7B00FF" stop-opacity="0.11875"/>
<stop offset="0.75551" stop-color="#7B00FF" stop-opacity="0.25566"/>
<stop offset="1" stop-color="#7B00FF" stop-opacity="0.33333"/>
</linearGradient>
<linearGradient id="paint15_linear_180_3978" x1="264.238" y1="717.54" x2="407.343" y2="90.556" gradientUnits="userSpaceOnUse">
<stop stop-color="#7B00FF" stop-opacity="0.07143"/>
<stop offset="0.29834" stop-color="#7B00FF" stop-opacity="0.11831"/>
<stop offset="0.83553" stop-color="#7B00FF" stop-opacity="0.24241"/>
<stop offset="1" stop-color="#7B00FF" stop-opacity="0.28571"/>
</linearGradient>
<linearGradient id="paint16_linear_180_3978" x1="268.956" y1="723.203" x2="391.104" y2="77.6379" gradientUnits="userSpaceOnUse">
<stop stop-color="#7B00FF" stop-opacity="0.07619"/>
<stop offset="0.35386" stop-color="#7B00FF" stop-opacity="0.11877"/>
<stop offset="0.97197" stop-color="#7B00FF" stop-opacity="0.23229"/>
<stop offset="1" stop-color="#7B00FF" stop-opacity="0.2381"/>
</linearGradient>
<linearGradient id="paint17_linear_180_3978" x1="274.365" y1="727.891" x2="374.175" y2="65.695" gradientUnits="userSpaceOnUse">
<stop stop-color="#7B00FF" stop-opacity="0.08095"/>
<stop offset="0.45602" stop-color="#7B00FF" stop-opacity="0.11992"/>
<stop offset="1" stop-color="#7B00FF" stop-opacity="0.19048"/>
</linearGradient>
<linearGradient id="paint18_linear_180_3978" x1="280.397" y1="731.418" x2="356.621" y2="54.9129" gradientUnits="userSpaceOnUse">
<stop stop-color="#7B00FF" stop-opacity="0.08571"/>
<stop offset="0.70772" stop-color="#7B00FF" stop-opacity="0.12158"/>
<stop offset="1" stop-color="#7B00FF" stop-opacity="0.14286"/>
</linearGradient>
<linearGradient id="paint19_linear_180_3978" x1="286.963" y1="733.623" x2="338.535" y2="45.4535" gradientUnits="userSpaceOnUse">
<stop stop-color="#7B00FF" stop-opacity="0.09048"/>
<stop offset="1" stop-color="#7B00FF" stop-opacity="0.09524"/>
</linearGradient>
<linearGradient id="paint20_linear_180_3978" x1="293.951" y1="734.364" x2="320.027" y2="37.4568" gradientUnits="userSpaceOnUse">
<stop stop-color="#7B00FF" stop-opacity="0.09524"/>
<stop offset="0.73703" stop-color="#7B00FF" stop-opacity="0.0643"/>
<stop offset="1" stop-color="#7B00FF" stop-opacity="0.04762"/>
</linearGradient>
<linearGradient id="paint21_linear_180_3978" x1="301.228" y1="733.524" x2="301.228" y2="31.0415" gradientUnits="userSpaceOnUse">
<stop stop-color="#7B00FF" stop-opacity="0.1"/>
<stop offset="0.42497" stop-color="#7B00FF" stop-opacity="0.07105"/>
<stop offset="1" stop-color="#7B00FF" stop-opacity="0"/>
</linearGradient>
<radialGradient id="paint22_radial_180_3978" cx="0" cy="0" r="1" gradientUnits="userSpaceOnUse" gradientTransform="translate(243.81 546.101) rotate(141.517) scale(201.693)">
<stop stop-color="#45FFCD"/>
<stop offset="0.222992" stop-color="#45FFCD" stop-opacity="0.638731"/>
<stop offset="0.534607" stop-color="#45FFCD" stop-opacity="0.382572"/>
<stop offset="1" stop-color="#45FFCD" stop-opacity="0"/>
</radialGradient>
<radialGradient id="paint23_radial_180_3978" cx="0" cy="0" r="1" gradientUnits="userSpaceOnUse" gradientTransform="translate(202.496 148.869) rotate(-58.7196) scale(201.693)">
<stop stop-color="#7B00FF"/>
<stop offset="0.222992" stop-color="#7B00FF" stop-opacity="0.638731"/>
<stop offset="0.534607" stop-color="#7B00FF" stop-opacity="0.382572"/>
<stop offset="1" stop-color="#7B00FF" stop-opacity="0"/>
</radialGradient>
<radialGradient id="paint24_radial_180_3978" cx="0" cy="0" r="1" gradientUnits="userSpaceOnUse" gradientTransform="translate(471.334 421.336) rotate(-30.0301) scale(133.549)">
<stop stop-color="#BE9DEA"/>
<stop offset="0.222992" stop-color="#BE9DEA" stop-opacity="0.638731"/>
<stop offset="0.534607" stop-color="#BE9DEA" stop-opacity="0.382572"/>
<stop offset="1" stop-color="#BE9DEA" stop-opacity="0"/>
</radialGradient>
<clipPath id="clip0_180_3978">
<rect width="810" height="702.517" fill="white" transform="translate(22 39)"/>
</clipPath>
</defs>
</svg>
