<svg width="55" height="37" viewBox="0 0 55 37" fill="none" xmlns="http://www.w3.org/2000/svg">
<path d="M9.07313 23.3887C8.63596 23.3887 8.27163 23.753 8.27163 24.1901V27.6875C7.39729 26.886 6.23152 26.4489 5.1386 26.4489C5.06573 26.4489 4.91999 26.4489 4.84713 26.4489C4.40996 26.4489 3.75424 26.5217 3.09848 26.8132C1.42267 27.5418 0.329739 28.999 0.0382927 30.8934C-0.180292 32.7149 0.548305 34.3908 1.93267 35.4108C2.87987 36.0666 3.89997 36.4309 5.06575 36.4309C5.50292 36.4309 5.94008 36.358 6.37725 36.2852C7.83448 35.9208 9.00024 34.9008 9.58313 33.5893C9.87457 32.9335 10.0203 32.2049 10.0203 31.5492C10.0203 31.4763 10.0203 31.4034 10.0203 31.3306V24.1901C9.8746 23.753 9.5103 23.3887 9.07313 23.3887ZM8.19879 31.5492C8.19879 31.9863 8.05305 32.4964 7.90732 32.8607C7.54302 33.735 6.81443 34.3907 5.79437 34.6093C4.77431 34.9008 3.68136 34.6822 2.80702 34.0264C1.93268 33.3707 1.42264 32.2049 1.56837 31.0391C1.71409 29.8005 2.44274 28.7804 3.60852 28.3432C3.89997 28.1975 4.26424 28.1247 4.84713 28.1247C4.91999 28.1247 4.92 28.1247 4.99286 28.1247C4.99286 28.1247 4.99289 28.1247 5.06575 28.1247C6.08581 28.1247 7.03301 28.6347 7.6159 29.509C7.98021 30.0191 8.19879 30.6748 8.19879 31.3306V31.5492Z" fill="white"/>
<path d="M28.3813 34.3173C27.3612 34.9002 26.1226 34.9002 25.1025 34.3173C24.0824 33.7344 23.4995 32.7143 23.4995 31.5485C23.4995 29.0713 25.1753 28.1241 26.6326 28.1241C26.7054 28.1241 26.7783 28.1241 26.7783 28.1241C27.4341 28.1241 27.9441 28.2698 28.3084 28.4884C28.6727 28.707 29.1827 28.6341 29.4742 28.2698C29.6928 27.9055 29.6199 27.3954 29.2556 27.104C28.5998 26.6668 27.7255 26.4482 26.7783 26.4482C26.7054 26.4482 26.6326 26.4482 26.5597 26.4482C24.301 26.5211 21.8237 28.1969 21.8237 31.5485C21.8237 33.3701 22.7709 34.9002 24.2282 35.7745C24.9568 36.2117 25.8311 36.4303 26.7054 36.4303C27.5798 36.4303 28.4541 36.2117 29.1827 35.7745C29.547 35.5559 29.6928 35.0459 29.4742 34.6087C29.3285 34.2444 28.8184 34.0987 28.3813 34.3173Z" fill="white"/>
<path d="M54.1743 26.5215C52.9357 26.5215 51.7699 26.9587 50.8955 27.7601C49.3654 28.9988 49.2197 30.6746 49.2197 32.1318V35.6292C49.2197 36.0663 49.584 36.4306 50.0212 36.4306C50.4584 36.4306 50.8227 36.0663 50.8227 35.5563V32.059C50.8227 30.5289 51.1141 29.6545 51.9156 28.9988C51.9156 28.9988 51.9156 28.9988 51.9885 28.9988C52.5713 28.4888 53.3 28.1973 54.1743 28.1973C54.6115 28.1973 54.9758 27.833 54.9758 27.323C55.0487 26.8858 54.6843 26.5215 54.1743 26.5215Z" fill="white"/>
<path d="M15.849 26.4482C15.7761 26.4482 15.7033 26.4482 15.7033 26.4482H15.6304C14.246 26.4482 12.9345 27.1769 12.0602 28.2698C11.113 29.5084 10.7487 31.1114 11.0401 32.5686C11.3315 33.953 12.2059 35.1188 13.5174 35.7745C14.3189 36.2117 15.1204 36.4303 15.9947 36.4303C16.5047 36.4303 17.0148 36.3574 17.5248 36.2117C18.9092 35.8474 20.0749 34.7544 20.6578 33.3701C21.2407 31.84 21.095 30.1642 20.2207 28.7798C19.1277 27.3226 17.5248 26.4482 15.849 26.4482ZM18.9092 32.7143C18.5449 33.6615 17.8162 34.3173 16.869 34.6087H16.7962C15.9218 34.9002 14.9747 34.8273 14.1732 34.3173C13.3717 33.8801 12.7159 33.0786 12.5702 32.2043C12.3516 31.2571 12.5702 30.1642 13.2259 29.3627C13.8088 28.6341 14.6832 28.1969 15.5575 28.1241C15.6304 28.1241 15.7033 28.1241 15.7033 28.1241H15.7761H15.849C16.9419 28.1241 17.962 28.7069 18.6177 29.6541C19.2735 30.5285 19.3463 31.6943 18.9092 32.7143Z" fill="white"/>
<path d="M33.5544 31.4763L37.0518 27.9061C37.3432 27.5418 37.3432 27.0317 37.0518 26.7403C36.6875 26.4488 36.1774 26.4488 35.886 26.7403L33.1901 29.4362V24.1901C33.1901 23.753 32.8258 23.3887 32.3887 23.3887C31.9515 23.3887 31.5872 23.753 31.5872 24.263V31.5492V35.6294C31.5872 36.0666 31.9515 36.4309 32.3887 36.4309C32.8258 36.4309 33.1901 36.0666 33.1901 35.6294V33.5893L35.886 36.2851C36.0317 36.4309 36.2503 36.5037 36.4689 36.5037C36.6875 36.5037 36.906 36.4309 37.0518 36.2851C37.3432 35.9937 37.3432 35.4108 37.0518 35.1194L33.5544 31.4763Z" fill="white"/>
<path d="M47.2524 28.4884C46.3052 27.1769 44.7751 26.4482 43.0993 26.4482C41.132 26.4482 39.3105 27.6869 38.509 29.5813C37.7075 31.5485 38.2904 33.6615 39.9662 35.2645C40.2577 35.5559 40.622 35.7745 41.132 35.9202C41.7149 36.2117 42.5164 36.3574 43.245 36.3574C44.1193 36.3574 45.0665 36.1388 45.7223 35.6288C46.0866 35.3373 46.1595 34.8273 45.868 34.463C45.5766 34.0987 45.0665 34.0258 44.7022 34.3173C44.1193 34.7545 42.9535 34.8273 42.0063 34.5359C44.1922 32.6415 47.3253 30.0184 47.3253 30.0184C47.6167 29.7999 47.6895 29.3627 47.5438 28.9984C47.5438 28.9255 47.3981 28.6341 47.2524 28.4884ZM40.6948 33.5158C39.8934 32.4957 39.6748 31.33 40.1119 30.1642C40.622 28.9255 41.7877 28.0512 43.0993 28.0512C44.1193 28.0512 45.0665 28.4155 45.7223 29.1441C44.7022 30.1642 42.3706 32.1314 40.6948 33.5158Z" fill="white"/>
<path d="M27.6526 0H24.5195V3.13305H27.6526V0ZM25.0296 2.91446H24.811V0.291441H25.0296V2.91446ZM25.4668 2.91446H25.2481V0.291441H25.4668V2.91446ZM25.9768 2.91446H25.7582V0.291441H25.9768V2.91446ZM26.414 2.91446H26.1954V0.291441H26.414V2.91446ZM26.924 2.91446H26.7054V0.291441H26.924V2.91446ZM27.434 2.91446H27.2154V0.291441H27.434V2.91446Z" fill="white"/>
<path d="M16.7234 7.28613H13.5903V10.4192H16.7234V7.28613ZM14.0275 10.2006H13.809V7.57757H14.0275V10.2006ZM14.5376 10.2006H14.3189V7.57757H14.5376V10.2006ZM14.9747 10.2006H14.7561V7.57757H14.9747V10.2006ZM15.4848 10.2006H15.2662V7.57757H15.4848V10.2006ZM15.9948 10.2006H15.7762V7.57757H15.9948V10.2006ZM16.4319 10.2006H16.2134V7.57757H16.4319V10.2006Z" fill="white"/>
<path d="M20.3665 3.64258H17.2334V6.77562H20.3665V3.64258ZM17.7434 6.55704H17.5249V3.93402H17.7434V6.55704ZM18.1806 6.55704H17.962V3.93402H18.1806V6.55704ZM18.6906 6.55704H18.4721V3.93402H18.6906V6.55704ZM19.2007 6.55704H18.9821V3.93402H19.2007V6.55704ZM19.6379 6.55704H19.4192V3.93402H19.6379V6.55704ZM20.1479 6.55704H19.9293V3.93402H20.1479V6.55704Z" fill="white"/>
<path d="M20.3665 7.28613H17.2334V10.4192H20.3665V7.28613ZM17.7434 10.2006H17.5249V7.57757H17.7434V10.2006ZM18.1806 10.2006H17.962V7.57757H18.1806V10.2006ZM18.6906 10.2006H18.4721V7.57757H18.6906V10.2006ZM19.2007 10.2006H18.9821V7.57757H19.2007V10.2006ZM19.6379 10.2006H19.4192V7.57757H19.6379V10.2006ZM20.1479 10.2006H19.9293V7.57757H20.1479V10.2006Z" fill="white"/>
<path d="M24.0095 7.28613H20.8765V10.4192H24.0095V7.28613ZM21.3865 10.2006H21.1679V7.57757H21.3865V10.2006ZM21.8237 10.2006H21.6051V7.57757H21.8237V10.2006ZM22.3337 10.2006H22.1151V7.57757H22.3337V10.2006ZM22.8437 10.2006H22.6252V7.57757H22.8437V10.2006ZM23.2809 10.2006H23.0623V7.57757H23.2809V10.2006ZM23.7909 10.2006H23.5723V7.57757H23.7909V10.2006Z" fill="white"/>
<path d="M24.0095 3.64258H20.8765V6.77562H24.0095V3.64258ZM21.3865 6.55704H21.1679V3.93402H21.3865V6.55704ZM21.8237 6.55704H21.6051V3.93402H21.8237V6.55704ZM22.3337 6.55704H22.1151V3.93402H22.3337V6.55704ZM22.8437 6.55704H22.6252V3.93402H22.8437V6.55704ZM23.2809 6.55704H23.0623V3.93402H23.2809V6.55704ZM23.7909 6.55704H23.5723V3.93402H23.7909V6.55704Z" fill="white"/>
<path d="M27.6526 3.64258H24.5195V6.77562H27.6526V3.64258ZM25.0296 6.55704H24.811V3.93402H25.0296V6.55704ZM25.4668 6.55704H25.2481V3.93402H25.4668V6.55704ZM25.9768 6.55704H25.7582V3.93402H25.9768V6.55704ZM26.414 6.55704H26.1954V3.93402H26.414V6.55704ZM26.924 6.55704H26.7054V3.93402H26.924V6.55704ZM27.434 6.55704H27.2154V3.93402H27.434V6.55704Z" fill="white"/>
<path d="M27.6526 7.28613H24.5195V10.4192H27.6526V7.28613ZM25.0296 10.2006H24.811V7.57757H25.0296V10.2006ZM25.4668 10.2006H25.2481V7.57757H25.4668V10.2006ZM25.9768 10.2006H25.7582V7.57757H25.9768V10.2006ZM26.414 10.2006H26.1954V7.57757H26.414V10.2006ZM26.924 10.2006H26.7054V7.57757H26.924V10.2006ZM27.434 10.2006H27.2154V7.57757H27.434V10.2006Z" fill="white"/>
<path d="M31.2959 7.28613H28.1628V10.4192H31.2959V7.28613ZM28.6729 10.2006H28.4543V7.57757H28.6729V10.2006ZM29.1101 10.2006H28.8915V7.57757H29.1101V10.2006ZM29.6201 10.2006H29.4015V7.57757H29.6201V10.2006ZM30.0573 10.2006H29.8387V7.57757H30.0573V10.2006ZM30.5673 10.2006H30.3487V7.57757H30.5673V10.2006ZM31.0773 10.2006H30.8587V7.57757H31.0773V10.2006Z" fill="white"/>
<path d="M39.6018 10.2734C39.9662 10.2734 40.2576 10.3462 40.6219 10.2734C42.2977 10.2005 43.6821 9.61759 44.5564 8.16036C44.5564 8.01464 44.4107 8.01464 44.3378 8.01464C43.3178 7.50461 42.2977 7.50461 41.2048 7.7232C40.8405 7.79606 40.4762 7.94178 40.039 8.08751C40.039 7.7232 40.039 7.43175 40.039 7.14031C39.8205 6.04738 39.2376 5.17305 38.4361 4.44443C37.9989 4.00726 37.926 4.00726 37.6346 4.59015C37.1974 5.53735 37.1245 6.48455 37.2703 7.50461C37.416 8.16037 37.6346 8.81612 38.0718 9.32615C38.3632 9.6176 38.3632 9.6176 37.9989 9.90904C36.6874 10.7834 35.2302 11.1477 33.7001 11.1477C26.1225 11.1477 18.472 11.1477 10.8945 11.1477C10.3116 11.1477 10.3115 11.1477 10.3115 11.7306C10.3115 12.022 10.3115 12.3863 10.3115 12.6778C10.3115 12.8964 10.3844 13.1149 10.3844 13.3335C10.3844 13.4793 10.4573 13.4793 10.5301 13.4793C10.8216 13.4793 11.113 13.4792 11.4044 13.4064C12.1331 13.3335 12.8617 13.1878 13.5174 12.6778C13.5903 12.6049 13.6632 12.6049 13.6632 12.6778C13.9546 13.0421 14.3918 13.1878 14.8289 13.2607C16.5776 13.6978 18.3263 13.5521 20.075 13.1149C20.585 12.9692 21.1679 12.8235 21.5322 12.3135C22.4794 13.2607 23.7181 13.4793 24.9567 13.4793C26.2682 13.4793 27.434 13.2607 28.454 12.3135C28.6726 12.6778 29.1098 12.8235 29.4741 12.9692C31.0771 13.4793 32.7529 13.5521 34.5015 13.3335C35.1573 13.2607 35.7402 13.1149 36.2502 12.6049C36.3231 12.5321 36.3231 12.6049 36.396 12.6049C36.8331 12.8964 37.3431 13.0421 37.7803 13.1878C37.926 13.2607 37.9989 13.1878 38.0718 13.0421C38.5089 12.2406 38.9461 11.3663 39.2375 10.4919C39.3833 10.3462 39.4561 10.2734 39.6018 10.2734Z" fill="white"/>
<path d="M10.8217 13.7705C10.7489 13.7705 10.7488 13.7705 10.676 13.7705C10.5303 13.7705 10.4574 13.8434 10.5303 13.9891C10.8217 15.3735 11.3317 16.6121 12.1332 17.705C12.2061 17.7779 12.279 17.8508 12.4247 17.8508C12.8618 17.8508 13.2262 17.9236 13.6633 17.9236C14.8291 17.9236 15.9949 17.9236 17.1607 17.705C17.6707 17.6322 18.2536 17.4864 18.7636 17.3407C18.9094 17.2679 18.9822 17.3407 19.0551 17.4864C19.1279 17.5593 19.1279 17.705 18.9822 17.7779C18.9094 17.8507 18.8365 17.8508 18.6907 17.9236C17.0878 18.4337 15.412 18.5065 13.7362 18.5065C13.3719 18.5065 13.0076 18.4336 12.5704 18.5065C13.2262 19.2351 13.9548 19.818 14.7563 20.328C16.5778 21.421 18.6179 21.931 20.8037 22.0039C21.3138 22.0039 21.7509 22.0039 22.261 22.0039C22.9167 22.0039 23.5725 21.931 24.2282 21.8581C25.9769 21.6396 27.6527 21.2752 29.3286 20.6923C32.753 19.3808 35.5218 17.2679 37.489 14.2077C37.5619 14.1348 37.6347 14.062 37.6347 13.9162C37.5619 13.9162 37.489 13.9162 37.3433 13.9162C28.5271 13.7705 19.7108 13.7705 10.8217 13.7705ZM20.148 17.3407C19.6379 17.3407 19.2737 16.9764 19.2737 16.4664C19.2737 16.0292 19.7108 15.592 20.148 15.592C20.5851 15.592 21.0223 16.0292 21.0223 16.4664C21.0223 16.9764 20.658 17.3407 20.148 17.3407Z" fill="white"/>
<path d="M20.3665 16.248C20.2207 16.1023 20.2936 15.9566 20.3665 15.8837C20.0021 15.8108 19.7836 15.8837 19.6378 16.1751C19.4921 16.3937 19.5649 16.758 19.7835 16.9038C20.0021 17.1223 20.2936 17.1223 20.5121 16.9766C20.8036 16.8309 20.8765 16.5395 20.8036 16.1751C20.6579 16.3209 20.5122 16.3937 20.3665 16.248Z" fill="white"/>
</svg>
