<svg width="38" height="37" viewBox="0 0 38 37" fill="none" xmlns="http://www.w3.org/2000/svg">
<path opacity="0.8" d="M37.3851 14.4752L37.312 14.3291L32.1246 0.885626C32.0515 0.593376 31.8323 0.374194 31.6132 0.228069C30.9556 -0.210306 30.1519 0.00888034 29.7135 0.666442C29.6404 0.812567 29.5674 0.885629 29.5674 1.03175L26.0604 11.6989H11.9593L8.45236 1.03175C8.23317 0.30113 7.50256 -0.137247 6.77193 0.0819405C6.62581 0.0819405 6.55275 0.155006 6.40662 0.228069C6.18744 0.374194 5.96824 0.593376 5.89518 0.885626L0.707763 14.3291L0.634674 14.4752C-0.899637 18.4937 0.415505 22.9505 3.84944 25.5807H3.92248L11.7402 31.4988L15.6125 34.4213L17.9505 36.1748C18.535 36.6132 19.3386 36.6132 19.8501 36.1748L22.1881 34.4213L26.0604 31.4988L33.9512 25.5807C37.6043 23.0235 38.8463 18.4937 37.3851 14.4752Z" fill="white"/>
<path d="M37.385 14.4752L37.312 14.3291C34.8279 14.8405 32.4168 15.9365 30.3711 17.4708L19.0464 26.0921L26.2796 31.5718L34.1703 25.6538C37.6042 23.0235 38.8463 18.4937 37.385 14.4752Z" fill="white"/>
<path opacity="0.4" d="M11.8132 31.4992L15.6856 34.4217L18.0235 36.1752C18.608 36.6136 19.4118 36.6136 19.9232 36.1752L22.2612 34.4217L26.1335 31.4992L18.9003 26.0195L11.8132 31.4992Z" fill="white"/>
<path d="M7.64869 17.4708C5.60294 15.9365 3.19189 14.8405 0.707763 14.3291L0.634674 14.4752C-0.899637 18.4937 0.415505 22.9505 3.84944 25.5807H3.92248L11.7402 31.4988L18.9734 26.0191L7.64869 17.4708Z" fill="white"/>
</svg>
