<svg width="26" height="37" viewBox="0 0 26 37" fill="none" xmlns="http://www.w3.org/2000/svg">
<path d="M4.01559 4.89148V3.21232H5.54877V4.89148H7.15489V0H5.54877V1.60616H4.01559V0H2.40942V4.89148H4.01559Z" fill="white"/>
<path d="M9.34491 1.60616V4.89148H11.0241V1.60616H12.4112V0H7.88477V1.60616H9.34491Z" fill="white"/>
<path d="M14.7475 2.48224L15.9156 4.23442L17.0838 2.48224V4.89148H18.6899V0H17.0107L15.9156 1.67917L14.8935 0H13.1414V4.89148H14.7475V2.48224Z" fill="white"/>
<path d="M23.5083 3.28532H21.1721V0H19.4929V4.89148H23.5083V3.28532Z" fill="white"/>
<path d="M0 7.1543L2.33624 33.5829L12.9223 36.5032L23.5083 33.5829L25.8445 7.1543H0ZM20.9531 13.4329L20.807 15.0391L20.734 15.7691H12.9223H8.32283L8.61483 19.0545H12.9223H19.5659H20.442L20.369 19.9305L19.6389 28.4724L19.5659 28.9834L12.9223 30.8086L6.27864 28.9834L5.84057 23.8729H7.37375H9.12589L9.3449 26.4282L12.9223 27.3773L16.4996 26.4282L16.8647 22.1938H12.9223H5.69455L4.89149 13.2869L4.8185 12.4108H12.9223H21.026L20.9531 13.4329Z" fill="white"/>
</svg>
