<svg width="37" height="37" viewBox="0 0 37 37" fill="none" xmlns="http://www.w3.org/2000/svg">
<path d="M0 0V36.5036H36.5036V0H0ZM19.8579 28.4728C19.8579 32.0501 17.7407 33.6563 14.7474 33.6563C11.9732 33.6563 10.44 32.2691 9.63695 30.517L12.4112 28.8378C12.9223 29.7869 13.4333 30.59 14.6014 30.59C15.6965 30.59 16.4266 30.1519 16.4266 28.3998V16.7186H19.8579V28.4728ZM27.9617 33.5833C24.7494 33.5833 22.7052 32.0501 21.6831 30.0789L24.4574 28.4728C25.1875 29.6409 26.1366 30.59 27.8157 30.59C29.2029 30.59 30.1519 29.8599 30.1519 28.9108C30.1519 27.7427 29.2029 27.3047 27.6697 26.6476L26.7936 26.2826C24.3114 25.2605 22.7052 23.8733 22.7052 21.0991C22.7052 18.5438 24.6764 16.5726 27.7427 16.5726C29.9329 16.5726 31.4661 17.3027 32.6342 19.3469L29.9329 21.026C29.3489 20.004 28.6918 19.5659 27.7427 19.5659C26.7206 19.5659 26.1366 20.223 26.1366 21.026C26.1366 22.0481 26.7936 22.4862 28.2538 23.1433L29.1298 23.5083C32.0501 24.7494 33.6563 26.0635 33.6563 28.9108C33.6563 31.9041 31.247 33.5833 27.9617 33.5833Z" fill="white"/>
</svg>
