<svg width="584" height="168" viewBox="0 0 584 168" fill="none" xmlns="http://www.w3.org/2000/svg">
<path d="M21.1719 0.78125H76.6719V17H21.4531C20.1719 17 19.0781 17.4531 18.1719 18.3594C17.2656 19.2656 16.8125 20.3594 16.8125 21.6406V47.1406C16.8125 48.4219 17.2656 49.5156 18.1719 50.4219C19.0781 51.3281 20.1719 51.7812 21.4531 51.7812H55.8125C57.0938 51.7812 58.1875 51.3281 59.0938 50.4219C60 49.5156 60.4531 48.4219 60.4531 47.1406V38H46.7188V21.7812H76.6719V47.1406C76.6719 52.8906 74.6406 57.7969 70.5781 61.8594C66.5469 65.8906 61.7344 67.9375 56.1406 68H21.2656C15.5781 67.9375 10.7344 65.8906 6.73438 61.8594C2.64062 57.7656 0.59375 52.8594 0.59375 47.1406V21.6406C0.59375 15.8906 2.64062 10.9688 6.73438 6.875C10.7656 2.84375 15.5781 0.8125 21.1719 0.78125Z" fill="#10141D"/>
<path d="M97.625 21.6406V21.7812H129.312V38H97.625V47.1406C97.625 48.4219 98.0781 49.5156 98.9844 50.4219C99.8906 51.3281 100.984 51.7812 102.266 51.7812H157.484V68H102.078C96.3906 67.9375 91.5469 65.8906 87.5469 61.8594C83.4531 57.7656 81.4062 52.8594 81.4062 47.1406V21.6406C81.4062 15.8906 83.4531 10.9688 87.5469 6.875C91.5781 2.84375 96.3906 0.8125 101.984 0.78125H157.531V17H102.266C100.984 17 99.8906 17.4531 98.9844 18.3594C98.0781 19.2656 97.625 20.3594 97.625 21.6406Z" fill="#10141D"/>
<path d="M183.078 51.7812H217.438C218.719 51.7812 219.812 51.3281 220.719 50.4219C221.625 49.5156 222.078 48.4219 222.078 47.1406V21.6406C222.078 20.3594 221.625 19.2656 220.719 18.3594C219.812 17.4531 218.719 17 217.438 17H183.078C181.797 17 180.703 17.4531 179.797 18.3594C178.891 19.2656 178.438 20.3594 178.438 21.6406V47.1406C178.438 48.4219 178.891 49.5156 179.797 50.4219C180.703 51.3281 181.797 51.7812 183.078 51.7812ZM217.719 68H182.891C177.203 67.9375 172.359 65.8906 168.359 61.8594C164.266 57.7656 162.219 52.8594 162.219 47.1406V21.6406C162.219 15.8906 164.266 10.9688 168.359 6.875C172.359 2.875 177.203 0.84375 182.891 0.78125H217.812C223.344 0.8125 228.141 2.84375 232.203 6.875C236.266 10.9375 238.297 15.8594 238.297 21.6406V47.1406C238.297 52.8906 236.266 57.7969 232.203 61.8594C228.141 65.9219 223.312 67.9688 217.719 68Z" fill="#10141D"/>
<path d="M243.031 68V21.3125C243.094 15.75 245.141 10.9375 249.172 6.875C253.203 2.84375 258.016 0.8125 263.609 0.78125H298.25C303.969 0.78125 308.875 2.82812 312.969 6.92188C317.062 11.0156 319.109 15.9219 319.109 21.6406C319.109 27.3906 317.078 32.2969 313.016 36.3594C310.328 39.0469 307.281 40.8594 303.875 41.7969L319.016 68H300.359L285.594 42.5H259.25V68H243.031ZM259.25 21.6406V26.2812H298.25C299.531 26.2812 300.625 25.8281 301.531 24.9219C302.438 24.0156 302.891 22.9219 302.891 21.6406C302.891 20.3594 302.438 19.2656 301.531 18.3594C300.625 17.4531 299.531 17 298.25 17H263.891C262.609 17 261.516 17.4531 260.609 18.3594C259.703 19.2656 259.25 20.3594 259.25 21.6406Z" fill="#10141D"/>
<path d="M344.422 0.78125H399.922V17H344.703C343.422 17 342.328 17.4531 341.422 18.3594C340.516 19.2656 340.062 20.3594 340.062 21.6406V47.1406C340.062 48.4219 340.516 49.5156 341.422 50.4219C342.328 51.3281 343.422 51.7812 344.703 51.7812H379.062C380.344 51.7812 381.438 51.3281 382.344 50.4219C383.25 49.5156 383.703 48.4219 383.703 47.1406V38H369.969V21.7812H399.922V47.1406C399.922 52.8906 397.891 57.7969 393.828 61.8594C389.797 65.8906 384.984 67.9375 379.391 68H344.516C338.828 67.9375 333.984 65.8906 329.984 61.8594C325.891 57.7656 323.844 52.8594 323.844 47.1406V21.6406C323.844 15.8906 325.891 10.9688 329.984 6.875C334.016 2.84375 338.828 0.8125 344.422 0.78125Z" fill="#10141D"/>
<path d="M420.875 21.6406V21.7812H452.562V38H420.875V47.1406C420.875 48.4219 421.328 49.5156 422.234 50.4219C423.141 51.3281 424.234 51.7812 425.516 51.7812H480.734V68H425.328C419.641 67.9375 414.797 65.8906 410.797 61.8594C406.703 57.7656 404.656 52.8594 404.656 47.1406V21.6406C404.656 15.8906 406.703 10.9688 410.797 6.875C414.828 2.84375 419.641 0.8125 425.234 0.78125H480.781V17H425.516C424.234 17 423.141 17.4531 422.234 18.3594C421.328 19.2656 420.875 20.3594 420.875 21.6406Z" fill="#10141D"/>
<path d="M506.328 0.78125H561.547V17H506.328C505.047 17 503.953 17.4531 503.047 18.3594C502.141 19.2656 501.688 20.3594 501.688 21.6406C501.688 22.9219 502.141 24.0156 503.047 24.9219C503.953 25.8281 505.047 26.2812 506.328 26.2812H540.688C546.406 26.2812 551.312 28.3281 555.406 32.4219C559.5 36.5156 561.547 41.4219 561.547 47.1406C561.547 52.8906 559.5 57.8125 555.406 61.9062C551.344 65.9688 546.438 68 540.688 68H485.469V51.7812H540.688C541.969 51.7812 543.062 51.3281 543.969 50.4219C544.875 49.5156 545.328 48.4219 545.328 47.1406C545.328 45.8594 544.875 44.7656 543.969 43.8594C543.062 42.9531 541.969 42.5 540.688 42.5H506.047C500.422 42.4375 495.609 40.3906 491.609 36.3594C487.516 32.2656 485.469 27.3594 485.469 21.6406C485.469 15.8906 487.5 10.9844 491.562 6.92188C495.656 2.82812 500.578 0.78125 506.328 0.78125Z" fill="#10141D"/>
<path d="M18.2656 126.281H57.2656C58.5469 126.281 59.6406 125.828 60.5469 124.922C61.4531 124.016 61.9062 122.922 61.9062 121.641C61.9062 120.359 61.4531 119.266 60.5469 118.359C59.6406 117.453 58.5469 117 57.2656 117H22.9062C21.625 117 20.5312 117.453 19.625 118.359C18.7188 119.266 18.2656 120.359 18.2656 121.641V126.281ZM22.25 100.781H57.2656C62.9844 100.781 67.8906 102.828 71.9844 106.922C76.0781 111.016 78.125 115.922 78.125 121.641C78.125 127.391 76.0781 132.312 71.9844 136.406C67.9219 140.469 63.0156 142.5 57.2656 142.5H18.2656V168H2.04688V121.641C2.04688 115.891 4.09375 110.969 8.1875 106.875C12.125 102.938 16.8125 100.906 22.25 100.781Z" fill="#10141D"/>
<path d="M82.8594 168V121.312C82.9219 115.75 84.9688 110.938 89 106.875C93.0312 102.844 97.8438 100.812 103.438 100.781H138.078C143.797 100.781 148.703 102.828 152.797 106.922C156.891 111.016 158.938 115.922 158.938 121.641C158.938 127.391 156.906 132.297 152.844 136.359C150.156 139.047 147.109 140.859 143.703 141.797L158.844 168H140.188L125.422 142.5H99.0781V168H82.8594ZM99.0781 121.641V126.281H138.078C139.359 126.281 140.453 125.828 141.359 124.922C142.266 124.016 142.719 122.922 142.719 121.641C142.719 120.359 142.266 119.266 141.359 118.359C140.453 117.453 139.359 117 138.078 117H103.719C102.438 117 101.344 117.453 100.438 118.359C99.5312 119.266 99.0781 120.359 99.0781 121.641Z" fill="#10141D"/>
<path d="M218.891 117H184.531C183.25 117 182.156 117.453 181.25 118.359C180.344 119.266 179.891 120.359 179.891 121.641V142.5H223.531V121.641C223.531 120.359 223.078 119.266 222.172 118.359C221.266 117.453 220.172 117 218.891 117ZM184.344 100.781H219.172C224.766 100.812 229.594 102.844 233.656 106.875C237.719 110.938 239.75 115.859 239.75 121.641V168H223.531V158.719H179.891V168H163.672V121.641C163.672 115.891 165.719 110.969 169.812 106.875C173.812 102.875 178.656 100.844 184.344 100.781Z" fill="#10141D"/>
<path d="M244.484 168V100.781H260.703V168H244.484Z" fill="#10141D"/>
<path d="M281.609 121.641V121.781H313.297V138H281.609V147.141C281.609 148.422 282.062 149.516 282.969 150.422C283.875 151.328 284.969 151.781 286.25 151.781H341.469V168H286.062C280.375 167.938 275.531 165.891 271.531 161.859C267.438 157.766 265.391 152.859 265.391 147.141V121.641C265.391 115.891 267.438 110.969 271.531 106.875C275.562 102.844 280.375 100.812 285.969 100.781H341.516V117H286.25C284.969 117 283.875 117.453 282.969 118.359C282.062 119.266 281.609 120.359 281.609 121.641Z" fill="#10141D"/>
<path d="M362.422 151.781H401.422C402.703 151.781 403.797 151.328 404.703 150.422C405.609 149.516 406.062 148.422 406.062 147.141V121.641C406.062 120.359 405.609 119.266 404.703 118.359C403.797 117.453 402.703 117 401.422 117H362.422V151.781ZM346.203 100.781H401.703C407.297 100.812 412.109 102.844 416.141 106.875C420.234 110.969 422.281 115.891 422.281 121.641V147.141C422.281 152.859 420.234 157.766 416.141 161.859C412.141 165.891 407.297 167.938 401.609 168H346.203V100.781Z" fill="#10141D"/>
<path d="M443.234 121.641V121.781H474.922V138H443.234V147.141C443.234 148.422 443.688 149.516 444.594 150.422C445.5 151.328 446.594 151.781 447.875 151.781H503.094V168H447.688C442 167.938 437.156 165.891 433.156 161.859C429.062 157.766 427.016 152.859 427.016 147.141V121.641C427.016 115.891 429.062 110.969 433.156 106.875C437.188 102.844 442 100.812 447.594 100.781H503.141V117H447.875C446.594 117 445.5 117.453 444.594 118.359C443.688 119.266 443.234 120.359 443.234 121.641Z" fill="#10141D"/>
<path d="M507.828 168V121.312C507.891 115.75 509.938 110.938 513.969 106.875C518 102.844 522.812 100.812 528.406 100.781H563.047C568.766 100.781 573.672 102.828 577.766 106.922C581.859 111.016 583.906 115.922 583.906 121.641C583.906 127.391 581.875 132.297 577.812 136.359C575.125 139.047 572.078 140.859 568.672 141.797L583.812 168H565.156L550.391 142.5H524.047V168H507.828ZM524.047 121.641V126.281H563.047C564.328 126.281 565.422 125.828 566.328 124.922C567.234 124.016 567.688 122.922 567.688 121.641C567.688 120.359 567.234 119.266 566.328 118.359C565.422 117.453 564.328 117 563.047 117H528.688C527.406 117 526.312 117.453 525.406 118.359C524.5 119.266 524.047 120.359 524.047 121.641Z" fill="#10141D"/>
</svg>
