<svg width="390" height="744" viewBox="0 0 390 744" fill="none" xmlns="http://www.w3.org/2000/svg">
<g opacity="0.3">
<g clip-path="url(#clip0_180_3888)">
<path d="M608.799 487.125C616.089 386.251 444.435 291.643 225.397 275.812C6.35886 259.98 -177.117 328.921 -184.408 429.794C-191.698 530.668 -20.0436 625.276 198.994 641.108C418.032 656.939 601.508 587.999 608.799 487.125Z" stroke="url(#paint0_linear_180_3888)" stroke-miterlimit="10"/>
<path d="M591.956 482.295C599.458 376.985 432.936 279.319 220.018 264.152C7.10071 248.985 -171.584 322.06 -179.086 427.37C-186.588 532.68 -20.0653 630.346 192.852 645.513C405.77 660.68 584.455 587.605 591.956 482.295Z" stroke="url(#paint1_linear_180_3888)" stroke-miterlimit="10"/>
<path d="M575.397 476.547C582.823 366.739 421.075 266.377 214.121 252.38C7.16804 238.384 -166.621 316.055 -174.047 425.862C-181.473 535.67 -19.7248 636.033 187.229 650.029C394.182 664.025 567.971 586.355 575.397 476.547Z" stroke="url(#paint2_linear_180_3888)" stroke-miterlimit="10"/>
<path d="M559.155 469.62C566.076 355.26 408.61 252.684 207.446 240.51C6.28164 228.336 -162.405 311.174 -169.325 425.534C-176.246 539.894 -18.7808 642.47 182.383 654.645C383.548 666.819 552.234 583.98 559.155 469.62Z" stroke="url(#paint3_linear_180_3888)" stroke-miterlimit="10"/>
<path d="M543.263 461.121C549.031 342.173 395.167 238.059 199.598 228.575C4.02907 219.092 -159.187 307.83 -164.955 426.778C-170.723 545.726 -16.8588 649.841 178.71 659.324C374.279 668.808 537.495 580.069 543.263 461.121Z" stroke="url(#paint4_linear_180_3888)" stroke-miterlimit="10"/>
<path d="M527.744 450.439C531.374 326.912 380.145 222.245 189.965 216.657C-0.213865 211.07 -157.327 306.679 -160.956 430.205C-164.585 553.732 -13.3563 658.4 176.823 663.988C367.002 669.575 524.115 573.966 527.744 450.439Z" stroke="url(#paint5_linear_180_3888)" stroke-miterlimit="10"/>
<path d="M177.634 668.438C362.614 668.438 512.57 564.683 512.57 436.695C512.57 308.707 362.614 204.952 177.634 204.952C-7.34654 204.952 -157.302 308.707 -157.302 436.695C-157.302 564.683 -7.34654 668.438 177.634 668.438Z" stroke="url(#paint6_linear_180_3888)" stroke-miterlimit="10"/>
<path d="M182.944 672.197C362.81 663.87 503.664 550.058 497.55 417.99C491.436 285.922 340.669 185.61 160.802 193.938C-19.064 202.265 -159.918 316.077 -153.804 448.145C-147.689 580.213 3.07772 680.524 182.944 672.197Z" stroke="url(#paint7_linear_180_3888)" stroke-miterlimit="10"/>
<path d="M195.034 674.083C369.508 653.457 497.999 527.206 482.026 392.093C466.053 256.98 311.665 164.171 137.191 184.797C-37.283 205.423 -165.774 331.674 -149.801 466.787C-133.828 601.9 20.56 694.709 195.034 674.083Z" stroke="url(#paint8_linear_180_3888)" stroke-miterlimit="10"/>
<path d="M217.055 671.343C384.858 632.591 495.504 491.248 464.188 355.645C432.872 220.043 271.454 141.53 103.65 180.282C-64.1535 219.034 -174.799 360.377 -143.483 495.98C-112.167 631.582 49.251 710.095 217.055 671.343Z" stroke="url(#paint9_linear_180_3888)" stroke-miterlimit="10"/>
<path d="M249.5 659.198C407.516 595.923 493.122 438.514 440.706 307.615C388.289 176.717 217.7 121.897 59.6839 185.172C-98.3323 248.447 -183.938 405.856 -131.522 536.755C-79.1053 667.653 91.4839 722.473 249.5 659.198Z" stroke="url(#paint10_linear_180_3888)" stroke-miterlimit="10"/>
<path d="M283.899 635.198C428.347 545.139 484.974 375.14 410.378 255.493C335.783 135.846 158.212 111.859 13.7642 201.918C-130.684 291.976 -187.31 461.976 -112.715 581.623C-38.1189 701.27 139.451 725.256 283.899 635.198Z" stroke="url(#paint11_linear_180_3888)" stroke-miterlimit="10"/>
<path d="M307.516 605.826C438.015 493.408 470.18 316.809 379.358 211.381C288.537 105.953 109.122 111.619 -21.376 224.037C-151.874 336.455 -184.039 513.055 -93.2182 618.482C-2.39711 723.91 177.018 718.244 307.516 605.826Z" stroke="url(#paint12_linear_180_3888)" stroke-miterlimit="10"/>
<path d="M317.402 579.324C437.276 450.839 453.823 271.456 354.361 178.66C254.9 85.8644 77.093 114.797 -42.7806 243.282C-162.654 371.767 -179.201 551.15 -79.7395 643.946C19.7223 736.741 197.529 707.809 317.402 579.324Z" stroke="url(#paint13_linear_180_3888)" stroke-miterlimit="10"/>
<path d="M317.716 558.087C430.899 417.999 439.304 237.094 336.488 154.024C233.672 70.9536 58.5697 117.176 -54.6141 257.264C-167.798 397.352 -176.203 578.257 -73.3866 661.327C29.4294 744.397 204.532 698.175 317.716 558.087Z" stroke="url(#paint14_linear_180_3888)" stroke-miterlimit="10"/>
<path d="M312.487 541.249C422.054 392.156 427.287 209.865 324.177 134.091C221.067 58.3173 48.6591 117.754 -60.9072 266.847C-170.473 415.94 -175.707 598.231 -72.5972 674.005C30.5129 749.779 202.921 690.342 312.487 541.249Z" stroke="url(#paint15_linear_180_3888)" stroke-miterlimit="10"/>
<path d="M304.133 527.507C412.246 370.891 417.462 187.03 315.785 116.842C214.107 46.654 44.039 116.718 -64.0733 273.334C-172.186 429.95 -177.402 613.811 -75.7245 683.999C25.953 754.187 196.021 684.124 304.133 527.507Z" stroke="url(#paint16_linear_180_3888)" stroke-miterlimit="10"/>
<path d="M293.977 515.864C402.151 352.602 409.386 166.942 310.137 101.182C210.887 35.4209 42.7374 114.461 -65.4369 277.723C-173.611 440.985 -180.846 626.644 -81.597 692.405C17.6523 758.166 185.802 679.126 293.977 515.864Z" stroke="url(#paint17_linear_180_3888)" stroke-miterlimit="10"/>
<path d="M282.753 505.644C392.08 336.283 402.695 148.63 306.463 86.51C210.231 24.3898 43.5923 111.326 -65.7346 280.687C-175.061 450.049 -185.677 637.701 -89.4449 699.822C6.78719 761.942 173.426 675.006 282.753 505.644Z" stroke="url(#paint18_linear_180_3888)" stroke-miterlimit="10"/>
<path d="M270.89 496.405C382.182 321.301 397.123 131.506 304.262 72.4848C211.4 13.4638 45.9003 107.568 -65.392 282.671C-176.684 457.775 -191.625 647.571 -98.7635 706.592C-5.90181 765.613 159.598 671.509 270.89 496.405Z" stroke="url(#paint19_linear_180_3888)" stroke-miterlimit="10"/>
<path d="M258.647 487.85C372.532 307.248 392.477 115.201 303.196 58.9013C213.914 2.60191 49.2156 103.369 -64.6693 283.972C-178.554 464.574 -198.499 656.621 -109.218 712.92C-19.9366 769.22 144.762 668.452 258.647 487.85Z" stroke="url(#paint20_linear_180_3888)" stroke-miterlimit="10"/>
<path d="M246.188 479.777C363.165 293.85 388.616 99.4765 303.035 45.6321C217.453 -8.21218 53.246 98.8623 -63.7314 284.79C-180.709 470.717 -206.16 665.091 -120.578 718.935C-34.9961 772.779 129.211 665.705 246.188 479.777Z" stroke="url(#paint21_linear_180_3888)" stroke-miterlimit="10"/>
</g>
<g filter="url(#filter0_bf_180_3888)">
<circle cx="-61.0332" cy="590.967" r="117.56" transform="rotate(159.764 -61.0332 590.967)" fill="url(#paint22_radial_180_3888)"/>
</g>
<g filter="url(#filter1_bf_180_3888)">
<path d="M-27.142 116.971C-34.6628 120.444 -38.0219 129.423 -33.6195 136.441C-22.5613 154.068 -6.9677 168.526 11.6451 178.224C30.2578 187.922 51.0417 192.418 71.8247 191.381C80.0987 190.968 85.5328 183.071 84.0705 174.917L69.3941 93.078C67.6603 83.4101 57.257 77.9896 48.3401 82.1081L-27.142 116.971Z" fill="url(#paint23_radial_180_3888)"/>
</g>
<g filter="url(#filter2_bf_180_3888)">
<circle cx="315.756" cy="395.756" r="76.9026" transform="rotate(159.764 315.756 395.756)" fill="url(#paint24_radial_180_3888)"/>
</g>
</g>
<defs>
<filter id="filter0_bf_180_3888" x="-213.625" y="438.375" width="305.184" height="305.184" filterUnits="userSpaceOnUse" color-interpolation-filters="sRGB">
<feFlood flood-opacity="0" result="BackgroundImageFix"/>
<feGaussianBlur in="BackgroundImageFix" stdDeviation="2.5"/>
<feComposite in2="SourceAlpha" operator="in" result="effect1_backgroundBlur_180_3888"/>
<feBlend mode="normal" in="SourceGraphic" in2="effect1_backgroundBlur_180_3888" result="shape"/>
<feGaussianBlur stdDeviation="17.5" result="effect2_foregroundBlur_180_3888"/>
</filter>
<filter id="filter1_bf_180_3888" x="-70.5837" y="45.7158" width="189.892" height="180.811" filterUnits="userSpaceOnUse" color-interpolation-filters="sRGB">
<feFlood flood-opacity="0" result="BackgroundImageFix"/>
<feGaussianBlur in="BackgroundImageFix" stdDeviation="2.5"/>
<feComposite in2="SourceAlpha" operator="in" result="effect1_backgroundBlur_180_3888"/>
<feBlend mode="normal" in="SourceGraphic" in2="effect1_backgroundBlur_180_3888" result="shape"/>
<feGaussianBlur stdDeviation="17.5" result="effect2_foregroundBlur_180_3888"/>
</filter>
<filter id="filter2_bf_180_3888" x="203.832" y="283.832" width="223.847" height="223.847" filterUnits="userSpaceOnUse" color-interpolation-filters="sRGB">
<feFlood flood-opacity="0" result="BackgroundImageFix"/>
<feGaussianBlur in="BackgroundImageFix" stdDeviation="2.5"/>
<feComposite in2="SourceAlpha" operator="in" result="effect1_backgroundBlur_180_3888"/>
<feBlend mode="normal" in="SourceGraphic" in2="effect1_backgroundBlur_180_3888" result="shape"/>
<feGaussianBlur stdDeviation="17.5" result="effect2_foregroundBlur_180_3888"/>
</filter>
<linearGradient id="paint0_linear_180_3888" x1="3.27551" y1="667.38" x2="421.115" y2="249.54" gradientUnits="userSpaceOnUse">
<stop stop-color="#7B00FF" stop-opacity="0"/>
<stop offset="0.15081" stop-color="#7B00FF" stop-opacity="0.16499"/>
<stop offset="0.57366" stop-color="#7B00FF" stop-opacity="0.6095"/>
<stop offset="0.86526" stop-color="#7B00FF" stop-opacity="0.89039"/>
<stop offset="1" stop-color="#7B00FF"/>
</linearGradient>
<linearGradient id="paint1_linear_180_3888" x1="12.6017" y1="663.735" x2="400.268" y2="245.93" gradientUnits="userSpaceOnUse">
<stop stop-color="#7B00FF" stop-opacity="0.01"/>
<stop offset="0.44799" stop-color="#7B00FF" stop-opacity="0.45338"/>
<stop offset="0.82915" stop-color="#7B00FF" stop-opacity="0.81167"/>
<stop offset="1" stop-color="#7B00FF" stop-opacity="0.95238"/>
</linearGradient>
<linearGradient id="paint2_linear_180_3888" x1="20.2263" y1="660.89" x2="381.124" y2="241.52" gradientUnits="userSpaceOnUse">
<stop stop-color="#7B00FF" stop-opacity="0.01"/>
<stop offset="0.22438" stop-color="#7B00FF" stop-opacity="0.22028"/>
<stop offset="0.76274" stop-color="#7B00FF" stop-opacity="0.70891"/>
<stop offset="1" stop-color="#7B00FF" stop-opacity="0.90476"/>
</linearGradient>
<linearGradient id="paint3_linear_180_3888" x1="26.2222" y1="659.111" x2="363.607" y2="236.044" gradientUnits="userSpaceOnUse">
<stop stop-color="#7B00FF" stop-opacity="0.01429"/>
<stop offset="0.60745" stop-color="#7B00FF" stop-opacity="0.53666"/>
<stop offset="1" stop-color="#7B00FF" stop-opacity="0.85714"/>
</linearGradient>
<linearGradient id="paint4_linear_180_3888" x1="30.7352" y1="658.6" x2="347.573" y2="229.3" gradientUnits="userSpaceOnUse">
<stop stop-color="#7B00FF" stop-opacity="0.01905"/>
<stop offset="1" stop-color="#7B00FF" stop-opacity="0.80952"/>
</linearGradient>
<linearGradient id="paint5_linear_180_3888" x1="33.9797" y1="659.473" x2="332.809" y2="221.172" gradientUnits="userSpaceOnUse">
<stop stop-color="#7B00FF" stop-opacity="0.02381"/>
<stop offset="1" stop-color="#7B00FF" stop-opacity="0.7619"/>
</linearGradient>
<linearGradient id="paint6_linear_180_3888" x1="36.2194" y1="661.754" x2="319.048" y2="211.636" gradientUnits="userSpaceOnUse">
<stop stop-color="#7B00FF" stop-opacity="0.02857"/>
<stop offset="0.52636" stop-color="#7B00FF" stop-opacity="0.38253"/>
<stop offset="1" stop-color="#7B00FF" stop-opacity="0.71429"/>
</linearGradient>
<linearGradient id="paint7_linear_180_3888" x1="37.7505" y1="665.375" x2="305.996" y2="200.76" gradientUnits="userSpaceOnUse">
<stop stop-color="#7B00FF" stop-opacity="0.03333"/>
<stop offset="0.34914" stop-color="#7B00FF" stop-opacity="0.24255"/>
<stop offset="1" stop-color="#7B00FF" stop-opacity="0.66667"/>
</linearGradient>
<linearGradient id="paint8_linear_180_3888" x1="38.8725" y1="670.19" x2="293.353" y2="188.69" gradientUnits="userSpaceOnUse">
<stop stop-color="#7B00FF" stop-opacity="0.0381"/>
<stop offset="0.27926" stop-color="#7B00FF" stop-opacity="0.18545"/>
<stop offset="0.89961" stop-color="#7B00FF" stop-opacity="0.55657"/>
<stop offset="1" stop-color="#7B00FF" stop-opacity="0.61905"/>
</linearGradient>
<linearGradient id="paint9_linear_180_3888" x1="39.8695" y1="675.998" x2="280.835" y2="175.627" gradientUnits="userSpaceOnUse">
<stop stop-color="#7B00FF" stop-opacity="0.04286"/>
<stop offset="0.24659" stop-color="#7B00FF" stop-opacity="0.15633"/>
<stop offset="0.77842" stop-color="#7B00FF" stop-opacity="0.44423"/>
<stop offset="1" stop-color="#7B00FF" stop-opacity="0.57143"/>
</linearGradient>
<linearGradient id="paint10_linear_180_3888" x1="40.9921" y1="682.559" x2="268.192" y2="161.811" gradientUnits="userSpaceOnUse">
<stop stop-color="#7B00FF" stop-opacity="0.04762"/>
<stop offset="0.23171" stop-color="#7B00FF" stop-opacity="0.13977"/>
<stop offset="0.71672" stop-color="#7B00FF" stop-opacity="0.37519"/>
<stop offset="1" stop-color="#7B00FF" stop-opacity="0.52381"/>
</linearGradient>
<linearGradient id="paint11_linear_180_3888" x1="42.4502" y1="689.614" x2="255.213" y2="147.502" gradientUnits="userSpaceOnUse">
<stop stop-color="#7B00FF" stop-opacity="0.05238"/>
<stop offset="0.22762" stop-color="#7B00FF" stop-opacity="0.12985"/>
<stop offset="0.69002" stop-color="#7B00FF" stop-opacity="0.32917"/>
<stop offset="1" stop-color="#7B00FF" stop-opacity="0.47619"/>
</linearGradient>
<linearGradient id="paint12_linear_180_3888" x1="44.4051" y1="696.898" x2="241.735" y2="132.966" gradientUnits="userSpaceOnUse">
<stop stop-color="#7B00FF" stop-opacity="0.05714"/>
<stop offset="0.2317" stop-color="#7B00FF" stop-opacity="0.12388"/>
<stop offset="0.68849" stop-color="#7B00FF" stop-opacity="0.29679"/>
<stop offset="1" stop-color="#7B00FF" stop-opacity="0.42857"/>
</linearGradient>
<linearGradient id="paint13_linear_180_3888" x1="46.9804" y1="704.147" x2="227.641" y2="118.459" gradientUnits="userSpaceOnUse">
<stop stop-color="#7B00FF" stop-opacity="0.0619"/>
<stop offset="0.24357" stop-color="#7B00FF" stop-opacity="0.12045"/>
<stop offset="0.70959" stop-color="#7B00FF" stop-opacity="0.27325"/>
<stop offset="1" stop-color="#7B00FF" stop-opacity="0.38095"/>
</linearGradient>
<linearGradient id="paint14_linear_180_3888" x1="50.2455" y1="711.111" x2="212.856" y2="104.24" gradientUnits="userSpaceOnUse">
<stop stop-color="#7B00FF" stop-opacity="0.06667"/>
<stop offset="0.26449" stop-color="#7B00FF" stop-opacity="0.11875"/>
<stop offset="0.75551" stop-color="#7B00FF" stop-opacity="0.25566"/>
<stop offset="1" stop-color="#7B00FF" stop-opacity="0.33333"/>
</linearGradient>
<linearGradient id="paint15_linear_180_3888" x1="54.2375" y1="717.54" x2="197.343" y2="90.5563" gradientUnits="userSpaceOnUse">
<stop stop-color="#7B00FF" stop-opacity="0.07143"/>
<stop offset="0.29834" stop-color="#7B00FF" stop-opacity="0.11831"/>
<stop offset="0.83553" stop-color="#7B00FF" stop-opacity="0.24241"/>
<stop offset="1" stop-color="#7B00FF" stop-opacity="0.28571"/>
</linearGradient>
<linearGradient id="paint16_linear_180_3888" x1="58.9563" y1="723.203" x2="181.104" y2="77.6383" gradientUnits="userSpaceOnUse">
<stop stop-color="#7B00FF" stop-opacity="0.07619"/>
<stop offset="0.35386" stop-color="#7B00FF" stop-opacity="0.11877"/>
<stop offset="0.97197" stop-color="#7B00FF" stop-opacity="0.23229"/>
<stop offset="1" stop-color="#7B00FF" stop-opacity="0.2381"/>
</linearGradient>
<linearGradient id="paint17_linear_180_3888" x1="64.3649" y1="727.891" x2="164.175" y2="65.6957" gradientUnits="userSpaceOnUse">
<stop stop-color="#7B00FF" stop-opacity="0.08095"/>
<stop offset="0.45602" stop-color="#7B00FF" stop-opacity="0.11992"/>
<stop offset="1" stop-color="#7B00FF" stop-opacity="0.19048"/>
</linearGradient>
<linearGradient id="paint18_linear_180_3888" x1="70.397" y1="731.419" x2="146.621" y2="54.9132" gradientUnits="userSpaceOnUse">
<stop stop-color="#7B00FF" stop-opacity="0.08571"/>
<stop offset="0.70772" stop-color="#7B00FF" stop-opacity="0.12158"/>
<stop offset="1" stop-color="#7B00FF" stop-opacity="0.14286"/>
</linearGradient>
<linearGradient id="paint19_linear_180_3888" x1="76.9633" y1="733.623" x2="128.534" y2="45.4538" gradientUnits="userSpaceOnUse">
<stop stop-color="#7B00FF" stop-opacity="0.09048"/>
<stop offset="1" stop-color="#7B00FF" stop-opacity="0.09524"/>
</linearGradient>
<linearGradient id="paint20_linear_180_3888" x1="83.9506" y1="734.364" x2="110.027" y2="37.4576" gradientUnits="userSpaceOnUse">
<stop stop-color="#7B00FF" stop-opacity="0.09524"/>
<stop offset="0.73703" stop-color="#7B00FF" stop-opacity="0.0643"/>
<stop offset="1" stop-color="#7B00FF" stop-opacity="0.04762"/>
</linearGradient>
<linearGradient id="paint21_linear_180_3888" x1="91.2281" y1="733.525" x2="91.2281" y2="31.0424" gradientUnits="userSpaceOnUse">
<stop stop-color="#7B00FF" stop-opacity="0.1"/>
<stop offset="0.42497" stop-color="#7B00FF" stop-opacity="0.07105"/>
<stop offset="1" stop-color="#7B00FF" stop-opacity="0"/>
</linearGradient>
<radialGradient id="paint22_radial_180_3888" cx="0" cy="0" r="1" gradientUnits="userSpaceOnUse" gradientTransform="translate(33.8101 546.101) rotate(141.517) scale(201.693)">
<stop stop-color="#45FFCD"/>
<stop offset="0.222992" stop-color="#45FFCD" stop-opacity="0.638731"/>
<stop offset="0.534607" stop-color="#45FFCD" stop-opacity="0.382572"/>
<stop offset="1" stop-color="#45FFCD" stop-opacity="0"/>
</radialGradient>
<radialGradient id="paint23_radial_180_3888" cx="0" cy="0" r="1" gradientUnits="userSpaceOnUse" gradientTransform="translate(-7.50347 148.869) rotate(-58.7196) scale(201.693)">
<stop stop-color="#7B00FF"/>
<stop offset="0.222992" stop-color="#7B00FF" stop-opacity="0.638731"/>
<stop offset="0.534607" stop-color="#7B00FF" stop-opacity="0.382572"/>
<stop offset="1" stop-color="#7B00FF" stop-opacity="0"/>
</radialGradient>
<radialGradient id="paint24_radial_180_3888" cx="0" cy="0" r="1" gradientUnits="userSpaceOnUse" gradientTransform="translate(261.334 421.336) rotate(-30.0301) scale(133.549)">
<stop stop-color="#BE9DEA"/>
<stop offset="0.222992" stop-color="#BE9DEA" stop-opacity="0.638731"/>
<stop offset="0.534607" stop-color="#BE9DEA" stop-opacity="0.382572"/>
<stop offset="1" stop-color="#BE9DEA" stop-opacity="0"/>
</radialGradient>
<clipPath id="clip0_180_3888">
<rect width="810" height="702.517" fill="white" transform="translate(-188 39)"/>
</clipPath>
</defs>
</svg>
