<svg width="61" height="37" viewBox="0 0 61 37" fill="none" xmlns="http://www.w3.org/2000/svg">
<path d="M14.3093 9.49092H25.7715V10.367H15.3314V17.2297H25.1144V18.1058H15.3314V25.6255H25.8445V26.5016H14.2363V9.49092H14.3093ZM26.7936 9.49092H28.0347L33.4372 17.0107L38.9858 9.49092L46.5055 0L34.1673 17.8137L40.5189 26.5746H39.2778L33.5102 18.6168L27.6697 26.5746H26.4285L32.8531 17.8137L26.7936 9.49092ZM40.9569 10.367V9.49092H54.0252V10.367H48.0386V26.5016H47.0165V10.367H40.9569Z" fill="white"/>
<path d="M0 9.49023H1.31414L19.4199 36.5029L11.9002 26.5009L1.09511 10.8044L1.02212 26.5009H0V9.49023Z" fill="white"/>
<path d="M53.8792 25.3337C54.0982 25.3337 54.2442 25.1877 54.2442 24.9687C54.2442 24.7497 54.0982 24.6036 53.8792 24.6036C53.6602 24.6036 53.5142 24.7497 53.5142 24.9687C53.5142 25.1877 53.6602 25.3337 53.8792 25.3337ZM54.9013 24.3846C54.9013 25.0417 55.3393 25.4067 55.9964 25.4067C56.7265 25.4067 57.1645 24.9687 57.1645 24.2386V21.6104H56.5804V24.2386C56.5804 24.6767 56.3614 24.8957 55.9964 24.8957C55.7044 24.8957 55.4123 24.6767 55.4123 24.3846H54.9013ZM57.9676 24.3116C58.0406 24.9687 58.5516 25.4067 59.3547 25.4067C60.2308 25.4067 60.7419 24.9687 60.7419 24.2386C60.7419 23.6546 60.4498 23.3625 59.6468 23.2165L59.2087 23.1435C58.6977 22.9975 58.5516 22.8515 58.5516 22.6325C58.5516 22.2674 58.8437 22.0484 59.2817 22.0484C59.7198 22.0484 60.0118 22.2674 60.0848 22.6325H60.6689C60.6689 22.0484 60.0848 21.6104 59.3547 21.6104C58.5516 21.6104 58.0406 22.0484 58.0406 22.7055C58.0406 23.2165 58.3326 23.5815 58.9897 23.7276L59.5007 23.8736C60.0118 24.0196 60.2308 24.1656 60.2308 24.4576C60.2308 24.7497 59.8658 25.0417 59.4277 25.0417C58.9167 25.0417 58.6247 24.8227 58.5516 24.4576H57.9676V24.3116Z" fill="white"/>
</svg>
