<svg width="59" height="23" viewBox="0 0 59 23" fill="none" xmlns="http://www.w3.org/2000/svg">
<path fill-rule="evenodd" clip-rule="evenodd" d="M12.4835 12.1062C12.4835 11.8785 12.3492 11.6507 12.1255 11.514L6.57731 8.23407C6.48782 8.18852 6.39833 8.14296 6.2641 8.14296H6.21937C6.12988 8.14296 5.99564 8.18852 5.90616 8.23407L0.357943 11.514C0.134225 11.6507 0 11.8785 0 12.1062V20.8984C0 21.035 0.0447545 21.1261 0.178985 21.1717C0.268472 21.2173 0.402709 21.2173 0.492196 21.1717L3.8032 19.2584C4.02692 19.1217 4.16115 18.8939 4.16115 18.6662V14.5662C4.16115 14.3384 4.29538 14.1107 4.47436 13.974L5.86142 13.154C5.95091 13.1085 6.08514 13.0629 6.21937 13.0629C6.3536 13.0629 6.44309 13.1085 6.53258 13.154L7.91962 13.974C8.14334 14.1107 8.27756 14.3384 8.27756 14.5662V18.6662C8.27756 18.8939 8.41179 19.1217 8.6355 19.2584L11.9465 21.1717C12.036 21.2173 12.1703 21.2173 12.3045 21.1717C12.394 21.1261 12.4835 20.9895 12.4835 20.8984V12.1062ZM38.748 16.7073C38.748 16.7529 38.7032 16.844 38.6585 16.844L36.7345 17.9828C36.6898 18.0284 36.6003 18.0284 36.5555 17.9828L34.6315 16.844C34.5868 16.7984 34.542 16.7529 34.542 16.7073V14.4751C34.542 14.4296 34.5868 14.3384 34.6315 14.3384L36.5555 13.1996C36.6003 13.154 36.6898 13.154 36.7345 13.1996L38.6585 14.3384C38.7032 14.384 38.748 14.4296 38.748 14.4751V16.7073ZM39.2401 0.0341663C39.1506 -0.0113888 39.0164 -0.0113888 38.9269 0.0341663C38.8374 0.0797213 38.748 0.216386 38.748 0.307496V9.00851C38.748 9.09962 38.7032 9.19073 38.6137 9.23629C38.5242 9.28184 38.4347 9.28184 38.39 9.23629L37.0029 8.41629C36.7792 8.27963 36.5555 8.27963 36.3318 8.41629L30.7836 11.6963C30.5599 11.8329 30.4256 12.0607 30.4256 12.2885V18.8484C30.4256 19.0762 30.5599 19.3039 30.7836 19.4406L36.3318 22.7206C36.5555 22.8572 36.7792 22.8572 37.0029 22.7206L42.5512 19.4406C42.7749 19.3039 42.9091 19.0762 42.9091 18.8484V2.53969C42.9091 2.31192 42.7749 2.08414 42.5512 1.94748L39.2401 0.0341663ZM57.764 14.384C57.9877 14.2473 58.0772 14.0196 58.0772 13.7918V12.1974C58.0772 11.9696 57.9429 11.7418 57.764 11.6051L52.2158 8.32518C51.992 8.18852 51.7683 8.18852 51.5446 8.32518L45.9964 11.6051C45.7727 11.7418 45.6384 11.9696 45.6384 12.1974V18.7573C45.6384 18.9851 45.7727 19.2128 45.9964 19.3495L51.5446 22.5384C51.7683 22.675 51.992 22.675 52.2158 22.5384L55.5715 20.625C55.661 20.5795 55.7505 20.4428 55.7505 20.3062C55.7505 20.1695 55.7058 20.0784 55.5715 19.9873L49.9786 16.7073C49.8891 16.6618 49.7996 16.5251 49.7996 16.434V14.384C49.7996 14.2473 49.8443 14.1562 49.9786 14.0651L51.7236 13.0629C51.8131 13.0174 51.9473 13.0174 52.0368 13.0629L53.7818 14.0651C53.8713 14.1107 53.9608 14.2473 53.9608 14.3384V15.9329C53.9608 16.0695 54.0055 16.1606 54.1397 16.2518C54.2292 16.2973 54.3634 16.2973 54.4977 16.2518L57.764 14.384Z" fill="white"/>
<path fill-rule="evenodd" clip-rule="evenodd" d="M51.8129 14.0654C51.8577 14.0199 51.9024 14.0199 51.9472 14.0654L53.021 14.7032C53.0658 14.7487 53.0658 14.7487 53.0658 14.7943V16.0698C53.0658 16.1154 53.021 16.1609 53.021 16.1609L51.9472 16.7987C51.9024 16.8443 51.8577 16.8443 51.8129 16.7987L50.7391 16.1609C50.6944 16.1154 50.6943 16.1154 50.6943 16.0698V14.7943C50.6943 14.7487 50.7391 14.7032 50.7391 14.7032L51.8129 14.0654Z" fill="white"/>
<path d="M21.119 8.37041L15.5708 11.6048C15.347 11.7415 15.2576 11.9693 15.2576 12.197V18.7114C15.2576 18.9392 15.3918 19.167 15.5708 19.3036L21.119 22.538C21.3427 22.6747 21.5664 22.6747 21.7901 22.538L27.3383 19.3036C27.562 19.167 27.6515 18.9392 27.6515 18.7114V12.197C27.6515 11.9693 27.5173 11.7415 27.3383 11.6048L21.7901 8.37041C21.7006 8.32485 21.5664 8.2793 21.4769 8.2793C21.3874 8.2793 21.2085 8.32485 21.119 8.37041Z" fill="white"/>
</svg>
