<svg width="673" height="793" viewBox="0 0 673 793" fill="none" xmlns="http://www.w3.org/2000/svg">
<g filter="url(#filter0_f_114_10058)">
<circle cx="276.5" cy="396.5" r="196.5" fill="#7B00FF" fill-opacity="0.5"/>
</g>
<rect x="83" y="205" width="243" height="237" rx="8" fill="#10141D"/>
<rect x="103" y="225" width="140" height="94" rx="2" fill="#333333" fill-opacity="0.2"/>
<g opacity="0.4">
<path d="M117.361 239H142.29" stroke="#7B00FF" stroke-width="2" stroke-linecap="round"/>
<path d="M149.516 239H206.239" stroke="#45FFCD" stroke-width="2" stroke-linecap="round"/>
<path d="M214.548 239L229 239" stroke="white" stroke-width="2" stroke-linecap="round"/>
<path d="M124.226 247.981H180.948" stroke="#45FFCD" stroke-width="2" stroke-linecap="round"/>
<path d="M134.342 256.962H191.065" stroke="#7B00FF" stroke-width="2" stroke-linecap="round"/>
<path d="M117.361 274.925H142.29" stroke="#7B00FF" stroke-width="2" stroke-linecap="round"/>
<path d="M189.258 247.981L203.71 247.981" stroke="white" stroke-width="2" stroke-linecap="round"/>
<path d="M199.374 256.962L213.826 256.962" stroke="white" stroke-width="2" stroke-linecap="round"/>
<path d="M149.516 274.925H206.239" stroke="#45FFCD" stroke-width="2" stroke-linecap="round"/>
<path d="M214.548 274.925L229 274.925" stroke="white" stroke-width="2" stroke-linecap="round"/>
<path d="M124.226 283.906H180.948" stroke="#45FFCD" stroke-width="2" stroke-linecap="round"/>
<path d="M134.342 292.887H191.065" stroke="#7B00FF" stroke-width="2" stroke-linecap="round"/>
<path d="M121.697 305.038H204.071" stroke="white" stroke-width="2" stroke-linecap="round"/>
<path d="M117 265.943H162.884" stroke="white" stroke-width="2" stroke-linecap="round"/>
<path d="M189.258 283.906L203.71 283.906" stroke="white" stroke-width="2" stroke-linecap="round"/>
<path d="M199.374 292.887L213.826 292.887" stroke="white" stroke-width="2" stroke-linecap="round"/>
<path d="M170.832 265.943L212.381 265.943" stroke="#45FFCD" stroke-width="2" stroke-linecap="round"/>
</g>
<rect x="111" y="528" width="244.255" height="164" rx="8" fill="#10141D" fill-opacity="0.5"/>
<g opacity="0.4">
<path d="M136.056 552.426H179.549" stroke="#CCCCCC" stroke-opacity="0.2" stroke-width="2" stroke-linecap="round"/>
<path d="M192.156 552.426H291.119" stroke="#BE9DEA" stroke-width="2" stroke-linecap="round"/>
<path d="M305.616 552.426L330.83 552.426" stroke="white" stroke-width="2" stroke-linecap="round"/>
<path d="M148.032 568.095H246.995" stroke="#BE9DEA" stroke-width="2" stroke-linecap="round"/>
<path d="M165.682 583.764H264.644" stroke="#CCCCCC" stroke-opacity="0.2" stroke-width="2" stroke-linecap="round"/>
<path d="M136.056 615.103H179.549" stroke="#CCCCCC" stroke-opacity="0.2" stroke-width="2" stroke-linecap="round"/>
<path d="M261.493 568.095L286.706 568.095" stroke="white" stroke-width="2" stroke-linecap="round"/>
<path d="M279.142 583.764L304.356 583.764" stroke="white" stroke-width="2" stroke-linecap="round"/>
<path d="M192.156 615.103H291.119" stroke="#BE9DEA" stroke-width="2" stroke-linecap="round"/>
<path d="M305.616 615.103L330.83 615.103" stroke="white" stroke-width="2" stroke-linecap="round"/>
<path d="M148.032 630.772H246.995" stroke="#BE9DEA" stroke-width="2" stroke-linecap="round"/>
<path d="M165.682 646.441H264.644" stroke="#CCCCCC" stroke-opacity="0.2" stroke-width="2" stroke-linecap="round"/>
<path d="M143.62 667.64H287.337" stroke="white" stroke-width="2" stroke-linecap="round"/>
<path d="M135.426 599.433H215.478" stroke="white" stroke-width="2" stroke-linecap="round"/>
<path d="M261.493 630.772L286.706 630.772" stroke="white" stroke-width="2" stroke-linecap="round"/>
<path d="M279.142 646.441L304.356 646.441" stroke="white" stroke-width="2" stroke-linecap="round"/>
<path d="M229.346 599.433L301.834 599.433" stroke="#BE9DEA" stroke-width="2" stroke-linecap="round"/>
</g>
<rect x="103" y="338" width="63" height="86" rx="2" fill="#333333" fill-opacity="0.2"/>
<g opacity="0.4">
<path d="M109.163 348H120.381" stroke="#7B00FF" stroke-linecap="round"/>
<path d="M123.632 348H149.157" stroke="#45FFCD" stroke-linecap="round"/>
<path d="M152.897 348L159.4 348" stroke="white" stroke-linecap="round"/>
<path d="M112.252 356.981H137.777" stroke="#45FFCD" stroke-linecap="round"/>
<path d="M116.804 365.962H142.329" stroke="#7B00FF" stroke-linecap="round"/>
<path d="M109.163 383.925H120.381" stroke="#7B00FF" stroke-linecap="round"/>
<path d="M141.516 356.981L148.019 356.981" stroke="white" stroke-linecap="round"/>
<path d="M146.068 365.962L152.572 365.962" stroke="white" stroke-linecap="round"/>
<path d="M123.632 383.925H149.157" stroke="#45FFCD" stroke-linecap="round"/>
<path d="M152.897 383.925L159.4 383.925" stroke="white" stroke-linecap="round"/>
<path d="M112.252 392.906H137.777" stroke="#45FFCD" stroke-linecap="round"/>
<path d="M116.804 401.887H142.329" stroke="#7B00FF" stroke-linecap="round"/>
<path d="M111.114 414.038H148.182" stroke="white" stroke-linecap="round"/>
<path d="M109 374.943H129.648" stroke="white" stroke-linecap="round"/>
<path d="M141.516 392.906L148.019 392.906" stroke="white" stroke-linecap="round"/>
<path d="M146.068 401.887L152.572 401.887" stroke="white" stroke-linecap="round"/>
<path d="M133.224 374.943L151.921 374.943" stroke="#45FFCD" stroke-linecap="round"/>
</g>
<path d="M141 508H320C336.569 508 350 494.569 350 478V315C350 298.431 363.431 285 380 285H483.5" stroke="#7B00FF" stroke-width="3" stroke-linecap="round"/>
<g filter="url(#filter1_df_114_10058)">
<circle cx="140.5" cy="507.5" r="5.5" fill="#7B00FF"/>
</g>
<g filter="url(#filter2_df_114_10058)">
<circle cx="486.5" cy="284.5" r="5.5" fill="#7B00FF"/>
</g>
<g filter="url(#filter3_d_114_10058)">
<rect x="235" y="348" width="287" height="210" rx="8" fill="url(#paint0_linear_114_10058)" shape-rendering="crispEdges"/>
<rect x="234.5" y="347.5" width="288" height="211" rx="8.5" stroke="url(#paint1_linear_114_10058)" stroke-opacity="0.2" shape-rendering="crispEdges"/>
<circle cx="255" cy="368" r="5" fill="#FF5F56"/>
<circle cx="270" cy="368" r="5" fill="#FFBD2E"/>
<circle cx="285" cy="368" r="5" fill="#27C93F"/>
<g opacity="0.4">
<path d="M250.684 393H297.871" stroke="#7B00FF" stroke-width="3" stroke-linecap="round"/>
<path d="M311.548 393H418.916" stroke="#45FFCD" stroke-width="3" stroke-linecap="round"/>
<path d="M434.645 393L462 393" stroke="white" stroke-width="3" stroke-linecap="round"/>
<path d="M263.677 410H371.045" stroke="#45FFCD" stroke-width="3" stroke-linecap="round"/>
<path d="M282.826 427H390.194" stroke="#7B00FF" stroke-width="3" stroke-linecap="round"/>
<path d="M250.684 461H297.871" stroke="#7B00FF" stroke-width="3" stroke-linecap="round"/>
<path d="M386.774 410L414.129 410" stroke="white" stroke-width="3" stroke-linecap="round"/>
<path d="M405.923 427L433.277 427" stroke="white" stroke-width="3" stroke-linecap="round"/>
<path d="M311.548 461H418.916" stroke="#45FFCD" stroke-width="3" stroke-linecap="round"/>
<path d="M434.645 461L462 461" stroke="white" stroke-width="3" stroke-linecap="round"/>
<path d="M263.677 478H371.045" stroke="#45FFCD" stroke-width="3" stroke-linecap="round"/>
<path d="M282.826 495H390.194" stroke="#7B00FF" stroke-width="3" stroke-linecap="round"/>
<path d="M258.89 518H414.813" stroke="white" stroke-width="3" stroke-linecap="round"/>
<path d="M250 444H336.852" stroke="white" stroke-width="3" stroke-linecap="round"/>
<path d="M386.774 478L414.129 478" stroke="white" stroke-width="3" stroke-linecap="round"/>
<path d="M405.923 495L433.277 495" stroke="white" stroke-width="3" stroke-linecap="round"/>
<path d="M351.897 444L430.542 444" stroke="#45FFCD" stroke-width="3" stroke-linecap="round"/>
</g>
</g>
<defs>
<filter id="filter0_f_114_10058" x="-120" y="0" width="793" height="793" filterUnits="userSpaceOnUse" color-interpolation-filters="sRGB">
<feFlood flood-opacity="0" result="BackgroundImageFix"/>
<feBlend mode="normal" in="SourceGraphic" in2="BackgroundImageFix" result="shape"/>
<feGaussianBlur stdDeviation="100" result="effect1_foregroundBlur_114_10058"/>
</filter>
<filter id="filter1_df_114_10058" x="109" y="476" width="63" height="63" filterUnits="userSpaceOnUse" color-interpolation-filters="sRGB">
<feFlood flood-opacity="0" result="BackgroundImageFix"/>
<feColorMatrix in="SourceAlpha" type="matrix" values="0 0 0 0 0 0 0 0 0 0 0 0 0 0 0 0 0 0 127 0" result="hardAlpha"/>
<feMorphology radius="6" operator="dilate" in="SourceAlpha" result="effect1_dropShadow_114_10058"/>
<feOffset/>
<feGaussianBlur stdDeviation="10"/>
<feComposite in2="hardAlpha" operator="out"/>
<feColorMatrix type="matrix" values="0 0 0 0 0.481928 0 0 0 0 0 0 0 0 0 1 0 0 0 0.4 0"/>
<feBlend mode="normal" in2="BackgroundImageFix" result="effect1_dropShadow_114_10058"/>
<feBlend mode="normal" in="SourceGraphic" in2="effect1_dropShadow_114_10058" result="shape"/>
<feGaussianBlur stdDeviation="2" result="effect2_foregroundBlur_114_10058"/>
</filter>
<filter id="filter2_df_114_10058" x="455" y="253" width="63" height="63" filterUnits="userSpaceOnUse" color-interpolation-filters="sRGB">
<feFlood flood-opacity="0" result="BackgroundImageFix"/>
<feColorMatrix in="SourceAlpha" type="matrix" values="0 0 0 0 0 0 0 0 0 0 0 0 0 0 0 0 0 0 127 0" result="hardAlpha"/>
<feMorphology radius="6" operator="dilate" in="SourceAlpha" result="effect1_dropShadow_114_10058"/>
<feOffset/>
<feGaussianBlur stdDeviation="10"/>
<feComposite in2="hardAlpha" operator="out"/>
<feColorMatrix type="matrix" values="0 0 0 0 0.481928 0 0 0 0 0 0 0 0 0 1 0 0 0 0.4 0"/>
<feBlend mode="normal" in2="BackgroundImageFix" result="effect1_dropShadow_114_10058"/>
<feBlend mode="normal" in="SourceGraphic" in2="effect1_dropShadow_114_10058" result="shape"/>
<feGaussianBlur stdDeviation="2" result="effect2_foregroundBlur_114_10058"/>
</filter>
<filter id="filter3_d_114_10058" x="194" y="307" width="369" height="292" filterUnits="userSpaceOnUse" color-interpolation-filters="sRGB">
<feFlood flood-opacity="0" result="BackgroundImageFix"/>
<feColorMatrix in="SourceAlpha" type="matrix" values="0 0 0 0 0 0 0 0 0 0 0 0 0 0 0 0 0 0 127 0" result="hardAlpha"/>
<feOffset/>
<feGaussianBlur stdDeviation="20"/>
<feComposite in2="hardAlpha" operator="out"/>
<feColorMatrix type="matrix" values="0 0 0 0 0 0 0 0 0 0 0 0 0 0 0 0 0 0 0.5 0"/>
<feBlend mode="normal" in2="BackgroundImageFix" result="effect1_dropShadow_114_10058"/>
<feBlend mode="normal" in="SourceGraphic" in2="effect1_dropShadow_114_10058" result="shape"/>
</filter>
<linearGradient id="paint0_linear_114_10058" x1="522" y1="558" x2="356.652" y2="278.649" gradientUnits="userSpaceOnUse">
<stop stop-color="#1B180F"/>
<stop offset="0.479167" stop-color="#10141D"/>
</linearGradient>
<linearGradient id="paint1_linear_114_10058" x1="378.5" y1="348" x2="378.5" y2="558" gradientUnits="userSpaceOnUse">
<stop stop-color="#383838"/>
<stop offset="0.336" stop-color="#7B7B7B"/>
<stop offset="1" stop-color="white"/>
</linearGradient>
</defs>
</svg>
