<svg width="36" height="37" viewBox="0 0 36 37" fill="none" xmlns="http://www.w3.org/2000/svg">
<path d="M13.6612 17.5618H22.297C24.6917 17.5618 26.6511 15.6024 26.6511 13.1351V4.86216C26.6511 2.53994 24.6917 0.725694 22.297 0.362847C20.8456 0.145139 19.249 0 17.7976 0C16.3463 0 14.8949 0.145139 13.6612 0.362847C10.0327 1.01597 9.30703 2.3948 9.30703 4.86216V8.12778H17.9428V9.21632H9.30703H6.0414C3.50147 9.21632 1.32439 10.7403 0.598698 13.5705C-0.199566 16.8361 -0.199566 18.9406 0.598698 22.3514C1.17925 24.8913 2.70321 26.7056 5.17057 26.7056H8.21848V22.7868C8.21848 20.1017 10.6858 17.5618 13.6612 17.5618ZM13.0806 6.02327C12.2098 6.02327 11.4841 5.29757 11.4841 4.35416C11.4841 3.41076 12.2098 2.68508 13.0806 2.68508C13.9515 2.68508 14.6772 3.41076 14.6772 4.35416C14.7497 5.29757 14.024 6.02327 13.0806 6.02327Z" fill="white"/>
<path d="M35.287 13.7155C34.6339 11.1756 33.4727 9.36133 30.9328 9.36133H27.6672V13.2075C27.6672 16.1828 25.1273 18.7228 22.2245 18.7228H13.6613C11.2665 18.7228 9.30713 20.7547 9.30713 23.1495V31.4224C9.30713 33.7446 11.3391 35.1235 13.6613 35.8492C16.4189 36.6474 19.0314 36.7926 22.2971 35.8492C24.4741 35.196 26.6512 33.9624 26.6512 31.4224V28.1568H17.9429V27.0683H26.5786H30.9328C33.4727 27.0683 34.4161 25.3266 35.287 22.7141C36.1578 19.8113 36.1578 17.1988 35.287 13.7155ZM22.805 30.1887C23.6759 30.1887 24.4016 30.9144 24.4016 31.8578C24.4016 32.8012 23.6759 33.5269 22.805 33.5269C21.9342 33.5269 21.2085 32.8012 21.2085 31.8578C21.2085 30.9144 21.9342 30.1887 22.805 30.1887Z" fill="white"/>
</svg>
