<svg width="41" height="37" viewBox="0 0 41 37" fill="none" xmlns="http://www.w3.org/2000/svg">
<path d="M22.9205 20.8518C24.3456 19.4267 24.3456 17.1162 22.9205 15.6912C21.4955 14.2661 19.185 14.2661 17.7599 15.6912C16.3348 17.1162 16.3348 19.4267 17.7599 20.8518C19.185 22.2769 21.4955 22.2769 22.9205 20.8518Z" fill="white"/>
<path d="M40.8706 18.2578C40.8706 15.4114 37.5134 12.93 32.2586 11.3973C33.5723 6.14254 33.1344 1.98249 30.653 0.522827C28.1715 -0.936837 24.3034 0.741777 20.4353 4.5369C16.4942 0.741777 12.6991 -0.936837 10.2177 0.522827C7.73622 1.98249 7.29834 6.14254 8.61203 11.3973C3.35724 12.93 0 15.4114 0 18.2578C0 21.1041 3.35724 23.5855 8.61203 25.1182C7.29834 30.373 7.73622 34.533 10.2177 35.9927C10.8015 36.3576 11.5314 36.5036 12.2612 36.5036C14.0858 36.5036 16.2753 35.4818 18.6837 33.5842C19.2676 33.0733 19.8514 32.5625 20.4353 31.9786C21.0192 32.5625 21.6031 33.0733 22.1869 33.5842C24.5954 35.5548 26.7849 36.5036 28.6094 36.5036C29.3393 36.5036 30.0691 36.3576 30.653 35.9927C33.1344 34.533 33.5723 30.373 32.2586 25.1182C37.4404 23.6585 40.8706 21.1771 40.8706 18.2578ZM28.5364 1.83653C28.9743 1.83653 29.3393 1.90951 29.7042 2.12846C31.3098 3.07724 31.6747 6.43447 30.507 11.0324C28.8284 10.6675 27.0038 10.3756 25.0333 10.1566C23.9385 8.55098 22.7708 7.09132 21.603 5.8506C24.3034 3.22321 26.7848 1.83653 28.5364 1.83653ZM13.137 22.4908C13.5749 23.2206 13.9398 23.8775 14.3777 24.5343C13.064 24.3883 11.8233 24.1694 10.7285 23.8775C11.0935 22.7827 11.5313 21.615 12.0422 20.3743C12.3342 21.1041 12.6991 21.761 13.137 22.4908ZM10.7285 12.711C11.8963 12.4191 13.064 12.2731 14.3777 12.0542C13.9398 12.711 13.5749 13.3679 13.137 14.0977C12.6991 14.8275 12.3342 15.4844 11.9693 16.2142C11.4584 14.9735 11.0205 13.8058 10.7285 12.711ZM12.918 18.2578C13.4289 17.163 14.0128 16.0683 14.6696 14.9735C15.3265 13.8788 15.9833 12.784 16.6402 11.8352C17.8079 11.7622 19.0486 11.6893 20.3623 11.6893C21.676 11.6893 22.9167 11.7622 24.0845 11.8352C24.7413 12.857 25.3982 13.8788 26.055 14.9735C26.7119 16.0683 27.2957 17.163 27.8066 18.2578C27.2957 19.3525 26.7119 20.4472 26.055 21.542C25.3982 22.6367 24.7413 23.6585 24.0845 24.6803C22.9167 24.7533 21.676 24.8262 20.3623 24.8262C19.0486 24.8262 17.8079 24.7533 16.6402 24.6803C15.9833 23.6585 15.3265 22.6367 14.6696 21.542C14.0128 20.4472 13.4289 19.3525 12.918 18.2578ZM27.5877 22.4908C28.0256 21.761 28.3905 21.1041 28.7554 20.3743C29.2663 21.615 29.7042 22.7827 30.0691 23.8775C28.9014 24.1694 27.7336 24.3154 26.4199 24.5343C26.7849 23.8775 27.2228 23.1476 27.5877 22.4908ZM27.5877 14.0977C27.1498 13.3679 26.7848 12.711 26.3469 12.0542C27.6606 12.2001 28.9014 12.4191 29.9961 12.711C29.6312 13.8058 29.1933 14.9735 28.6824 16.2142C28.3905 15.4844 28.0256 14.8275 27.5877 14.0977ZM20.3623 7.09132C21.1652 7.96712 21.968 8.9159 22.7708 9.93766C21.968 9.93766 21.1652 9.86468 20.3623 9.86468C19.5595 9.86468 18.7567 9.86468 17.9539 9.93766C18.7567 8.9159 19.5595 7.96712 20.3623 7.09132ZM11.0205 2.12846C11.3854 1.90951 11.7503 1.83653 12.1882 1.83653C13.9398 1.83653 16.4212 3.22321 19.1216 5.8506C17.9539 7.09132 16.7861 8.55098 15.6914 10.1566C13.7208 10.3026 11.8963 10.5945 10.2177 11.0324C9.04992 6.43447 9.41484 3.00426 11.0205 2.12846ZM8.97695 23.4396C4.45199 22.1259 1.67863 20.1553 1.67863 18.3307C1.67863 16.5062 4.45199 14.4626 8.97695 13.2219C9.48783 14.9005 10.1447 16.5791 10.9475 18.3307C10.1447 20.0823 9.48783 21.7609 8.97695 23.4396ZM17.443 32.1976C14.7426 34.3871 12.4072 35.2628 11.0205 34.46C9.41484 33.5112 9.04992 30.154 10.2177 25.5561C11.8963 25.921 13.7208 26.2129 15.6914 26.4319C16.7861 28.0375 17.9539 29.4242 19.1216 30.7379C18.5377 31.2488 18.0269 31.7597 17.443 32.1976ZM17.9539 26.5778C18.7567 26.5778 19.5595 26.6508 20.3623 26.6508C21.1652 26.6508 21.968 26.6508 22.7708 26.5778C21.968 27.5996 21.1652 28.5484 20.3623 29.4242C19.5595 28.5484 18.7567 27.5996 17.9539 26.5778ZM29.7042 34.46C28.3175 35.2628 25.982 34.46 23.2817 32.1976C22.6978 31.7597 22.1869 31.2488 21.603 30.6649C22.7708 29.3512 23.9385 27.9645 25.0333 26.3589C27.0038 26.2129 28.8284 25.921 30.507 25.4831C31.6747 30.154 31.3098 33.5112 29.7042 34.46ZM31.7477 23.4396C31.2368 21.7609 30.58 20.0823 29.7772 18.3307C30.58 16.5791 31.2368 14.8275 31.7477 13.2219C36.2727 14.5356 39.046 16.5062 39.046 18.3307C39.046 20.1553 36.2727 22.1259 31.7477 23.4396Z" fill="white"/>
</svg>
