<svg width="50" height="37" viewBox="0 0 50 37" fill="none" xmlns="http://www.w3.org/2000/svg">
<path d="M47.0666 22.4579C45.2223 21.0024 43.0829 20.7841 40.796 21.0024C39.7632 21.148 38.8041 21.4391 37.9189 21.8029C37.8451 21.8757 37.6976 21.8757 37.6238 21.7302C37.1074 20.7113 36.591 19.7652 36.591 18.6008C36.591 17.6547 36.8123 16.8542 37.1074 15.9809C37.2549 15.4715 37.1812 15.2532 36.6648 15.1804C36.0008 15.0348 35.3369 15.1076 34.6729 15.3259C34.3778 15.3987 34.2303 15.5443 34.0827 15.9081C33.8614 16.5631 33.7876 17.2181 33.4925 17.8003C32.7548 19.4741 31.7958 21.0752 30.8368 22.6035C30.8368 22.6762 30.763 22.6762 30.763 22.6762C30.1728 21.7302 29.9515 20.6385 29.9515 19.5469C29.9515 18.8191 30.2466 18.0914 30.4679 17.3636C30.6155 16.9998 30.5417 16.8542 30.1728 16.7087C30.099 16.7087 30.0253 16.6359 29.8777 16.6359C29.14 16.5631 28.4761 16.5631 27.8121 16.7814C27.5908 16.8542 27.517 16.927 27.4432 17.1453C27.1482 18.4553 26.558 19.6197 26.0416 20.7841C25.0088 23.1129 23.9759 25.5145 22.7956 27.7705C22.7218 27.9888 22.5743 28.1344 22.4267 28.3527C22.353 28.1344 22.353 27.9888 22.353 27.8433C22.353 27.1883 22.5005 26.6061 22.6481 26.0239C22.9431 24.7867 23.312 23.4768 23.6071 22.2396C23.7546 21.6574 23.6071 21.3663 23.0169 21.2207C22.7218 21.148 22.4267 21.148 22.1316 21.3663C22.0579 21.4391 22.0579 21.4391 21.9841 21.3663C21.9103 21.2935 21.9841 21.2935 21.9841 21.2207C22.1317 20.6385 22.1317 20.0563 21.9103 19.4741C21.689 18.6736 21.1726 18.3825 20.4349 18.3825C19.9923 18.3825 19.6234 18.528 19.2545 18.6736C18.0742 19.2558 17.1151 20.0563 16.3036 21.0752C16.2299 21.2207 16.1561 21.2935 16.0086 21.3663C14.5331 22.1668 12.9839 22.9673 11.5085 23.8406C11.3609 23.9134 11.2871 23.9134 11.1396 23.7679C10.3281 22.9673 9.44284 22.2396 8.55757 21.5846C7.30345 20.6385 6.04933 19.7652 5.01652 18.6008C3.4673 16.927 3.09843 15.0348 4.05747 12.9971C4.72142 11.4688 5.828 10.3044 7.08213 9.28557C9.44284 7.32064 12.0986 5.86513 14.9758 4.70072C17.7053 3.53632 20.5087 2.88134 23.5333 3.02689C24.6399 3.09966 25.7465 3.31799 26.7793 3.82742C27.5908 4.26407 28.1072 4.91905 28.2547 5.86513C28.3285 6.59288 28.181 7.32064 27.9596 7.97562C27.2957 9.64945 26.1153 10.9594 24.7137 12.051C22.7218 13.5793 20.4349 14.5254 18.0004 14.9621C16.8938 15.1804 15.7873 15.2532 14.6069 15.0348C13.5003 14.8165 12.5413 14.4526 11.7298 13.5793C11.656 13.5065 11.5084 13.361 11.3609 13.4338C11.2134 13.5065 11.2134 13.6521 11.2134 13.8704C11.2871 14.1615 11.3609 14.3798 11.5085 14.5982C11.8773 15.1804 12.3937 15.5443 12.9839 15.9081C14.0167 16.4903 15.1971 16.7087 16.3774 16.7814C17.5578 16.8542 18.7381 16.7087 19.9185 16.4903C22.5005 15.9809 24.935 15.1076 27.0006 13.2882C29.0662 11.4688 30.6155 9.28557 30.8368 6.37456C30.9105 5.35571 30.763 4.33685 30.2466 3.39077C29.5089 2.08081 28.3285 1.28028 26.9268 0.770854C25.0825 0.115875 23.1645 -0.102451 21.1726 0.0430998C19.4759 0.115875 17.8529 0.479754 16.2299 0.989182C13.7216 1.78971 11.2872 2.88134 9.07399 4.1913C6.56573 5.64681 4.20502 7.32064 2.36072 9.57667C1.32791 10.8139 0.516414 12.1238 0.147553 13.7249C0.0737811 13.8704 0.147544 14.0887 0 14.2343C0 14.6709 0 15.1076 0 15.5443C0.221316 16.6359 0.663963 17.582 1.32791 18.4553C2.36072 19.838 3.6886 20.9296 5.09027 21.9485C6.04931 22.6762 7.08213 23.3312 8.11494 24.059C8.55757 24.3501 9.00022 24.714 9.44285 25.0778C9.36908 25.1506 9.29529 25.1506 9.29529 25.2234C8.55757 25.66 7.74608 26.0239 7.00835 26.4606C5.45914 27.4066 3.98369 28.3527 2.87711 29.7355C1.69675 31.191 1.18035 32.8648 1.8443 34.6842C2.13939 35.5575 2.72957 36.2852 3.76238 36.4308C3.9837 36.5036 4.27879 36.4308 4.50011 36.5036C4.57388 36.5036 4.72142 36.5036 4.79519 36.5036C5.01651 36.4308 5.31159 36.4308 5.53291 36.5036C5.60668 36.5036 5.75422 36.5036 5.82799 36.5036C6.04931 36.358 6.3444 36.4308 6.56572 36.358C8.33625 35.9941 9.88546 35.1208 10.992 33.7381C12.9839 31.4093 13.4265 28.7166 12.5413 25.8056C12.3937 25.3689 12.3937 25.3689 12.7626 25.0778C13.5003 24.6412 14.238 24.2045 14.9758 23.8406C14.9758 23.9134 14.9758 23.9134 14.9758 23.9134C14.9758 24.059 14.902 24.1318 14.902 24.2773C14.5331 25.5145 14.3118 26.8244 14.4593 28.1344C14.6069 29.226 14.902 30.2449 15.4922 31.191C16.0086 31.9187 16.6725 32.2098 17.484 31.9915C18.0742 31.8459 18.443 31.3365 18.7381 30.8271C19.3283 29.8082 19.7709 28.7894 20.2136 27.7705C20.2136 27.7705 20.2136 27.6977 20.2873 27.6977V27.7705C20.2873 27.8433 20.2873 27.8433 20.2873 27.9161C20.2873 28.0616 20.2873 28.2072 20.2136 28.3527C20.1398 29.1532 20.1398 29.881 20.4349 30.6088C20.73 31.4093 21.5415 31.6276 22.2054 31.1182C22.7218 30.7543 23.0907 30.3177 23.3858 29.8082C24.8612 27.2611 26.1891 24.6412 27.3695 21.8757C27.517 21.5118 27.6646 21.2207 27.8121 20.8569C28.1072 22.2396 28.5498 23.5495 29.2875 24.7867C29.3613 24.9323 29.3613 25.0051 29.2138 25.1506C28.5498 26.0967 27.7383 26.97 27.0006 27.9161C26.6317 28.3527 26.1891 28.7894 25.894 29.2988C25.5252 29.881 25.7465 30.4632 26.4104 30.6088C26.6318 30.6815 26.8531 30.6815 27.0006 30.6815C28.181 30.6815 29.2875 30.3177 30.2466 29.6627C31.2056 29.0805 31.8696 28.2799 32.0171 27.1883C32.1646 26.2422 31.9434 25.3689 31.5745 24.5684C31.5007 24.4229 31.5007 24.2773 31.6482 24.1317C32.386 23.0401 33.1237 21.8757 33.7877 20.7113C34.009 20.2747 34.2303 19.9108 34.5254 19.4013C34.6729 20.1291 34.8205 20.7113 35.0418 21.3663C35.2631 22.0213 35.5582 22.6035 35.8533 23.1857C35.927 23.3312 35.8533 23.3312 35.7795 23.404C35.2631 23.8406 34.7467 24.3501 34.3778 24.8595C33.7139 25.7328 33.1975 26.6061 33.0499 27.6977C32.9762 28.6438 33.6401 29.2988 34.5254 29.0805C35.8533 28.7894 37.1074 28.1344 37.9927 27.1155C38.5091 26.5333 38.8779 25.8056 38.8042 24.9323C38.8042 24.4229 38.6566 23.9862 38.5091 23.5495C38.4353 23.3312 38.4353 23.1857 38.7304 23.1129C40.9435 22.3851 43.1567 22.4579 45.3699 23.1857C46.4027 23.5495 47.2142 24.2045 47.8044 25.1506C48.3945 26.1695 48.3208 27.1883 47.6568 28.0616C47.4355 28.3527 47.0666 28.571 46.7715 28.7894C46.624 28.8621 46.4765 28.9349 46.5502 29.1532C46.624 29.3716 46.8453 29.2988 46.9929 29.226C48.1732 28.9349 49.206 27.625 49.2798 26.4606C49.1323 24.7867 48.3945 23.4768 47.0666 22.4579ZM10.9183 28.2072C10.6232 30.536 9.44283 32.2098 7.30344 33.3014C6.78703 33.5198 6.27064 33.6653 5.68046 33.6653C4.86897 33.6653 4.42633 33.3014 4.42633 32.5009C4.42633 31.7004 4.72142 30.9726 5.16405 30.3177C5.68046 29.4443 6.49194 28.7894 7.30344 28.2072C8.33625 27.4066 9.44283 26.6789 10.6232 26.0239C10.9183 26.6789 10.9921 27.4794 10.9183 28.2072ZM20.8038 20.9296C20.6562 21.7302 20.4349 22.5307 20.1398 23.2584C19.6234 24.7867 19.0332 26.315 18.3693 27.7705C18.2217 28.1344 18.0004 28.4255 17.7791 28.7166C17.5578 29.0077 17.2627 29.0077 17.1151 28.6438C16.8201 28.0616 16.8201 27.4794 16.8201 26.8972C16.8201 24.714 17.6316 22.8218 18.9594 21.148C19.2545 20.7841 19.6234 20.493 20.066 20.3474C20.2873 20.2747 20.5087 20.2019 20.6562 20.3474C20.9513 20.5658 20.8775 20.7841 20.8038 20.9296ZM27.517 29.0805C28.4023 28.1344 29.2138 27.2611 29.9515 26.2422C30.1728 27.1883 28.6236 29.1532 27.517 29.0805ZM35.5582 27.0428C35.3369 27.1883 35.1156 27.3339 34.8942 27.4066C34.8205 27.4066 34.7467 27.5522 34.6729 27.4066C34.5991 27.3339 34.5991 27.2611 34.6729 27.1155C34.8205 26.6061 34.968 26.0967 35.2631 25.66C35.632 25.0778 36.0746 24.4956 36.591 24.059C36.8861 25.0778 36.5172 26.3878 35.5582 27.0428Z" fill="white"/>
</svg>
