<svg width="37" height="37" viewBox="0 0 37 37" fill="none" xmlns="http://www.w3.org/2000/svg">
<path d="M18.2518 0C8.20566 0 0 8.20563 0 18.2518C0 28.2979 8.20566 36.5036 18.2518 36.5036C28.2979 36.5036 36.5036 28.2979 36.5036 18.2518C36.5036 8.20563 28.2979 0 18.2518 0ZM13.1137 27.9145C11.1198 28.2979 9.43264 27.6844 8.97252 25.9973C8.81914 25.3838 8.74246 24.6936 8.74246 24.0801C8.66577 23.3899 8.74246 22.6997 8.74246 22.0095C8.58909 20.0923 8.359 19.4788 6.51849 19.4021V17.1015C6.67186 17.1015 6.74855 17.0248 6.90193 17.0248C7.89887 16.9481 8.28234 16.6413 8.51241 15.7211C8.58909 15.1843 8.66579 14.6474 8.66579 14.0339C8.74248 12.9603 8.74247 11.8867 8.89585 10.813C9.12591 9.27927 10.1228 8.51238 11.6566 8.4357C12.1167 8.4357 12.5768 8.4357 13.037 8.4357V10.5063C12.8069 10.5063 12.6535 10.583 12.4235 10.583C11.1198 10.5063 11.0431 10.9664 10.9664 12.04C10.8897 12.7302 10.9664 13.3437 10.9664 14.0339C10.8897 14.7241 10.813 15.3376 10.7363 16.0278C10.583 16.9481 9.96945 17.6383 9.20257 18.2518C10.7363 19.2487 10.9664 20.8592 11.0431 22.4696C11.1198 23.3132 11.0431 24.2334 11.1965 25.077C11.2732 25.7672 11.5032 25.9206 12.1934 25.9206C12.5002 25.9206 12.7303 25.9206 13.1137 25.9206V27.9145ZM14.8775 18.3285C14.8008 19.0954 14.1873 19.6322 13.4971 19.5555H13.4204C12.6535 19.5555 12.1168 18.8653 12.1168 18.1751C12.1168 17.4082 12.8069 16.8714 13.4971 16.8714C14.3407 16.9481 14.9542 17.4849 14.8775 18.3285ZM18.2518 19.5555C17.4082 19.5555 16.8714 19.0187 16.8714 18.2518C16.8714 18.1751 16.8714 18.1751 16.8714 18.0984C16.8714 17.4082 17.4849 16.7947 18.1751 16.8714C19.0187 16.8714 19.5555 17.4082 19.5555 18.1751C19.5555 19.0187 19.0187 19.5555 18.2518 19.5555ZM22.9298 19.5555C22.8531 19.5555 22.8531 19.5555 22.9298 19.5555C22.1629 19.5555 21.5494 18.942 21.5494 18.1751C21.5494 17.4082 22.1629 16.7947 22.9298 16.8714C23.6966 16.8714 24.3101 17.4849 24.3101 18.2518C24.2334 19.0187 23.5433 19.7089 22.9298 19.5555ZM29.9084 19.4021C29.8317 19.4021 29.6783 19.4788 29.6016 19.4788C28.4513 19.5555 27.9145 20.0156 27.8378 21.1659C27.7611 21.9328 27.7611 22.623 27.6844 23.3899C27.6844 24.1568 27.6078 25.0003 27.4544 25.7672C27.1476 27.2243 26.2274 27.9145 24.7703 27.9912C24.3102 27.9912 23.85 27.9912 23.3132 27.9912V25.9206C23.62 25.9206 23.85 25.9206 24.0801 25.8439C25.0003 25.8439 25.3071 25.5372 25.3071 24.6169C25.3838 23.62 25.3838 22.6997 25.3838 21.7027C25.4605 20.3224 25.8439 19.0187 27.1476 18.1751C26.3807 17.6383 25.8439 17.0248 25.6138 16.1045C25.4605 15.0309 25.3838 13.9572 25.2304 12.8836C25.1537 12.3468 25.1537 11.81 25.1537 11.2732C25.077 10.6596 24.6936 10.5063 24.1567 10.5063C23.85 10.5063 23.5433 10.5063 23.1598 10.5063V8.4357C25.6138 8.05225 27.301 8.81914 27.4544 11.1965C27.5311 12.1934 27.531 13.1904 27.6077 14.1873C27.6077 14.7241 27.6844 15.2609 27.8378 15.7978C28.0679 16.6413 28.4513 16.8714 29.3716 16.9481C29.525 16.9481 29.6783 16.9481 29.8317 17.0248V19.4021H29.9084Z" fill="white"/>
</svg>
