<svg width="569" height="208" viewBox="0 0 569 208" fill="none" xmlns="http://www.w3.org/2000/svg">
<g filter="url(#filter0_d_50_10160)">
<path d="M140.75 68.375H152.75C154.458 68.375 155.917 67.7708 157.125 66.5625C158.333 65.3542 158.938 63.8958 158.938 62.1875V0.375H180.562V62.1875C180.562 69.8542 177.854 76.3958 172.438 81.8125C167.062 87.1875 160.562 89.9167 152.938 90H106.812C99.1458 89.9167 92.6458 87.1875 87.3125 81.8125C81.8542 76.3542 79.125 69.8125 79.125 62.1875V0.375H100.75V62.1875C100.75 63.8958 101.354 65.3542 102.562 66.5625C103.771 67.7708 105.229 68.375 106.938 68.375H119.125V28.375H140.75V68.375ZM208.5 28.1875V28.375H250.75V50H208.5V62.1875C208.5 63.8958 209.104 65.3542 210.312 66.5625C211.521 67.7708 212.979 68.375 214.688 68.375H288.312V90H214.438C206.854 89.9167 200.396 87.1875 195.062 81.8125C189.604 76.3542 186.875 69.8125 186.875 62.1875V28.1875C186.875 20.5208 189.604 13.9583 195.062 8.5C200.438 3.125 206.854 0.416667 214.312 0.375H288.375V22H214.688C212.979 22 211.521 22.6042 210.312 23.8125C209.104 25.0208 208.5 26.4792 208.5 28.1875ZM368.25 56H316.25V68.375H368.25C369.958 68.375 371.417 67.7708 372.625 66.5625C373.833 65.3542 374.438 63.8958 374.438 62.1875C374.438 60.4792 373.833 59.0208 372.625 57.8125C371.417 56.6042 369.958 56 368.25 56ZM368.25 22H322.438C320.729 22 319.271 22.6042 318.062 23.8125C316.854 25.0208 316.25 26.4792 316.25 28.1875V34.375H368.25C369.958 34.375 371.417 33.7708 372.625 32.5625C373.833 31.3542 374.438 29.8958 374.438 28.1875C374.438 26.4792 373.833 25.0208 372.625 23.8125C371.417 22.6042 369.958 22 368.25 22ZM322.125 0.375H368.25C375.875 0.375 382.417 3.10417 387.875 8.5625C393.333 14.0208 396.062 20.5625 396.062 28.1875C396.062 34.6458 394.125 40.3125 390.25 45.1875C394.125 50.0625 396.062 55.7292 396.062 62.1875C396.062 69.8542 393.333 76.4167 387.875 81.875C382.458 87.2917 375.917 90 368.25 90H294.625V28.1875C294.625 20.5208 297.354 13.9583 302.812 8.5C308.188 3.125 314.625 0.416667 322.125 0.375ZM461.938 0.375H503.688C511.396 0.375 517.958 3.08333 523.375 8.5C528.667 13.7917 531.375 20.1667 531.5 27.625V28.375H509.875V27.9375C509.792 26.3125 509.188 24.9375 508.062 23.8125C506.854 22.6042 505.396 22 503.688 22H461.938C460.229 22 458.771 22.6042 457.562 23.8125C456.354 25.0208 455.75 26.4792 455.75 28.1875C455.75 29.8958 456.354 31.3542 457.562 32.5625C458.771 33.7708 460.229 34.375 461.938 34.375H495.625V56H461.938C460.229 56 458.771 56.6042 457.562 57.8125C456.354 59.0208 455.75 60.4792 455.75 62.1875C455.75 63.8958 456.354 65.3542 457.562 66.5625C458.771 67.7708 460.229 68.375 461.938 68.375H503.688C505.396 68.375 506.854 67.7708 508.062 66.5625C509.188 65.4375 509.792 64.0625 509.875 62.4375V56H500.25V34.375H541.188V56H531.562V62.375C531.646 64 532.25 65.375 533.375 66.5C534.542 67.6667 535.875 68.2708 537.375 68.3125C538.875 68.2708 540.208 67.6667 541.375 66.5C542.5 65.375 543.104 64 543.188 62.375V61.9375H564.812V62.6875C564.688 70.1458 561.979 76.5208 556.688 81.8125C551.271 87.2292 544.708 89.9375 537 89.9375C530.667 89.9375 525.146 88.1042 520.438 84.4375C515.604 88.1458 510.021 90 503.688 90H461.938C454.229 90 447.667 87.2917 442.25 81.875C436.833 76.4583 434.125 69.8958 434.125 62.1875C434.125 55.7292 436.062 50.0625 439.938 45.1875C436.062 40.3125 434.125 34.6458 434.125 28.1875C434.125 20.5208 436.833 13.9792 442.25 8.5625C447.708 3.10417 454.271 0.375 461.938 0.375ZM32.1875 110.375H78.3125C85.8958 110.458 92.3958 113.167 97.8125 118.5C103.229 123.917 105.938 130.479 105.938 138.188V200H84.3125V138.188C84.3125 136.479 83.7083 135.021 82.5 133.812C81.2917 132.604 79.8333 132 78.125 132H66V200H44.375V132H32.3125C30.6042 132 29.1458 132.604 27.9375 133.812C26.7292 135.021 26.125 136.479 26.125 138.188V200H4.5V138.188C4.5 130.521 7.22917 123.958 12.6875 118.5C18.0208 113.167 24.5208 110.458 32.1875 110.375ZM140.062 178.375H185.875C187.583 178.375 189.042 177.771 190.25 176.562C191.458 175.354 192.062 173.896 192.062 172.188V138.188C192.062 136.479 191.458 135.021 190.25 133.812C189.042 132.604 187.583 132 185.875 132H140.062C138.354 132 136.896 132.604 135.688 133.812C134.479 135.021 133.875 136.479 133.875 138.188V172.188C133.875 173.896 134.479 175.354 135.688 176.562C136.896 177.771 138.354 178.375 140.062 178.375ZM186.25 200H139.812C132.229 199.917 125.771 197.188 120.438 191.812C114.979 186.354 112.25 179.812 112.25 172.188V138.188C112.25 130.521 114.979 123.958 120.438 118.5C125.771 113.167 132.229 110.458 139.812 110.375H186.375C193.75 110.417 200.146 113.125 205.562 118.5C210.979 123.917 213.688 130.479 213.688 138.188V172.188C213.688 179.854 210.979 186.396 205.562 191.812C200.146 197.229 193.708 199.958 186.25 200ZM293.625 166H241.625V178.375H293.625C295.333 178.375 296.792 177.771 298 176.562C299.208 175.354 299.812 173.896 299.812 172.188C299.812 170.479 299.208 169.021 298 167.812C296.792 166.604 295.333 166 293.625 166ZM293.625 132H247.812C246.104 132 244.646 132.604 243.438 133.812C242.229 135.021 241.625 136.479 241.625 138.188V144.375H293.625C295.333 144.375 296.792 143.771 298 142.562C299.208 141.354 299.812 139.896 299.812 138.188C299.812 136.479 299.208 135.021 298 133.812C296.792 132.604 295.333 132 293.625 132ZM247.5 110.375H293.625C301.25 110.375 307.792 113.104 313.25 118.562C318.708 124.021 321.438 130.562 321.438 138.188C321.438 144.646 319.5 150.312 315.625 155.188C319.5 160.062 321.438 165.729 321.438 172.188C321.438 179.854 318.708 186.417 313.25 191.875C307.833 197.292 301.292 200 293.625 200H220V138.188C220 130.521 222.729 123.958 228.188 118.5C233.562 113.125 240 110.417 247.5 110.375ZM327.75 200V110.375H349.375V200H327.75ZM457.062 200H383.188C375.604 199.917 369.146 197.188 363.812 191.812C358.354 186.354 355.625 179.812 355.625 172.188V110.375H377.25V172.188C377.25 173.896 377.854 175.354 379.062 176.562C380.271 177.771 381.729 178.375 383.438 178.375H457.062V200ZM485 138.188V138.375H527.25V160H485V172.188C485 173.896 485.604 175.354 486.812 176.562C488.021 177.771 489.479 178.375 491.188 178.375H564.812V200H490.938C483.354 199.917 476.896 197.188 471.562 191.812C466.104 186.354 463.375 179.812 463.375 172.188V138.188C463.375 130.521 466.104 123.958 471.562 118.5C476.938 113.125 483.354 110.417 490.812 110.375H564.875V132H491.188C489.479 132 488.021 132.604 486.812 133.812C485.604 135.021 485 136.479 485 138.188Z" fill="url(#paint0_linear_50_10160)" shape-rendering="crispEdges"/>
</g>
<defs>
<filter id="filter0_d_50_10160" x="0.5" y="0.375" width="568.375" height="207.625" filterUnits="userSpaceOnUse" color-interpolation-filters="sRGB">
<feFlood flood-opacity="0" result="BackgroundImageFix"/>
<feColorMatrix in="SourceAlpha" type="matrix" values="0 0 0 0 0 0 0 0 0 0 0 0 0 0 0 0 0 0 127 0" result="hardAlpha"/>
<feOffset dy="4"/>
<feGaussianBlur stdDeviation="2"/>
<feComposite in2="hardAlpha" operator="out"/>
<feColorMatrix type="matrix" values="0 0 0 0 0 0 0 0 0 0 0 0 0 0 0 0 0 0 0.25 0"/>
<feBlend mode="normal" in2="BackgroundImageFix" result="effect1_dropShadow_50_10160"/>
<feBlend mode="normal" in="SourceGraphic" in2="effect1_dropShadow_50_10160" result="shape"/>
</filter>
<linearGradient id="paint0_linear_50_10160" x1="533.448" y1="12.3803" x2="469.697" y2="293.573" gradientUnits="userSpaceOnUse">
<stop stop-color="#CCCCCC" stop-opacity="0.4"/>
<stop offset="0.453125" stop-color="#CCCCCC"/>
<stop offset="0.572917" stop-color="#CCCCCC"/>
<stop offset="1" stop-color="#CCCCCC" stop-opacity="0.4"/>
</linearGradient>
</defs>
</svg>
