<svg width="37" height="37" viewBox="0 0 37 37" fill="none" xmlns="http://www.w3.org/2000/svg">
<path d="M0 0V36.5036H36.5036V0H0ZM21.1721 20.223H16.5726V33.2912H12.9223V20.223H8.39582V17.3027H21.1721V20.223ZM32.9992 30.955C32.6342 31.5391 32.1962 32.0501 31.6121 32.4152C31.028 32.7802 30.371 33.0722 29.5679 33.2182C28.7648 33.3643 27.9617 33.4373 27.1587 33.4373C26.2826 33.4373 25.4795 33.3643 24.6764 33.2182C23.8733 33.0722 23.2163 32.8532 22.6322 32.5612V28.9838C23.2893 29.4949 23.9464 29.9329 24.7494 30.2249C25.4795 30.517 26.2826 30.663 27.0126 30.663C27.4507 30.663 27.8887 30.59 28.1807 30.517C28.5458 30.444 28.8378 30.298 29.0568 30.1519C29.2759 30.0059 29.4219 29.8599 29.5679 29.6409C29.7139 29.4219 29.7139 29.2028 29.7139 28.9838C29.7139 28.6918 29.6409 28.3998 29.4219 28.1807C29.2759 27.9617 28.9838 27.7427 28.6918 27.5237C28.3998 27.3047 28.0347 27.0856 27.5967 26.9396C27.1587 26.7206 26.7206 26.5746 26.2096 26.3556C24.9684 25.8445 24.0193 25.1875 23.4353 24.4574C22.8512 23.7273 22.4862 22.7782 22.4862 21.7561C22.4862 20.953 22.6322 20.223 22.9972 19.6389C23.3623 19.0549 23.8003 18.5438 24.3844 18.1788C24.9684 17.8137 25.6255 17.5217 26.3556 17.3027C27.0856 17.0837 27.8887 17.0107 28.7648 17.0107C29.5679 17.0107 30.371 17.0837 30.955 17.1567C31.5391 17.2297 32.1962 17.3757 32.7072 17.5947V20.953C32.4152 20.734 32.1231 20.588 31.8311 20.442C31.5391 20.296 31.1741 20.15 30.882 20.077C30.517 20.0039 30.225 19.9309 29.8599 19.8579C29.4949 19.7849 29.2029 19.7849 28.9108 19.7849C28.4728 19.7849 28.1077 19.8579 27.8157 19.9309C27.4507 20.004 27.2317 20.15 26.9396 20.296C26.7206 20.442 26.5016 20.588 26.4286 20.807C26.2826 21.026 26.2096 21.2451 26.2096 21.4641C26.2096 21.7561 26.2826 21.9751 26.4286 22.1942C26.5746 22.4132 26.7936 22.6322 27.0126 22.7782C27.3047 22.9972 27.5967 23.1433 27.9617 23.3623C28.3268 23.5083 28.7648 23.7273 29.2028 23.9463C29.8599 24.2384 30.444 24.5304 30.955 24.8224C31.4661 25.1144 31.9041 25.4795 32.2692 25.8445C32.6342 26.2096 32.9262 26.6476 33.0722 27.1586C33.2913 27.6697 33.3643 28.1807 33.3643 28.8378C33.5103 29.5679 33.3643 30.371 32.9992 30.955Z" fill="white"/>
</svg>
